<svg width="1528" height="193" viewBox="0 0 1528 193" fill="none" xmlns="http://www.w3.org/2000/svg">
<g filter="url(#filter0_d_368_130)">
<path d="M16 8H1512L1148.13 169H16V103.215V8Z" fill="#C64308"/>
</g>
<g filter="url(#filter1_d_368_130)">
<path d="M86.4652 102V73.6364H105.577V78.5806H92.462V85.3391H104.594V90.2834H92.462V97.0558H105.633V102H86.4652ZM116.134 89.7017V102H110.234V80.7273H115.857V84.4805H116.106C116.577 83.2433 117.367 82.2646 118.475 81.5444C119.583 80.815 120.926 80.4503 122.505 80.4503C123.982 80.4503 125.27 80.7734 126.369 81.4197C127.468 82.0661 128.322 82.9893 128.931 84.1896C129.54 85.3807 129.845 86.8026 129.845 88.4553V102H123.945V89.5078C123.954 88.206 123.622 87.1903 122.948 86.4609C122.274 85.7223 121.346 85.353 120.164 85.353C119.37 85.353 118.669 85.5238 118.059 85.8654C117.459 86.207 116.988 86.7056 116.647 87.3612C116.314 88.0075 116.143 88.7876 116.134 89.7017ZM142.334 102.346C140.718 102.346 139.255 101.931 137.944 101.1C136.642 100.26 135.608 99.027 134.841 97.402C134.084 95.7678 133.706 93.7642 133.706 91.3913C133.706 88.9538 134.098 86.9272 134.883 85.3114C135.668 83.6864 136.711 82.4723 138.013 81.669C139.324 80.8565 140.76 80.4503 142.32 80.4503C143.511 80.4503 144.504 80.6534 145.298 81.0597C146.101 81.4567 146.747 81.9553 147.237 82.5554C147.735 83.1463 148.114 83.728 148.372 84.3004H148.552V73.6364H154.438V102H148.621V98.593H148.372C148.095 99.1839 147.703 99.7702 147.195 100.352C146.696 100.924 146.045 101.4 145.242 101.778C144.448 102.157 143.479 102.346 142.334 102.346ZM144.203 97.6513C145.154 97.6513 145.958 97.3928 146.613 96.8757C147.278 96.3494 147.786 95.6154 148.137 94.6737C148.497 93.7319 148.677 92.6286 148.677 91.3636C148.677 90.0987 148.501 89 148.151 88.0675C147.8 87.1349 147.292 86.4148 146.627 85.907C145.962 85.3991 145.154 85.1452 144.203 85.1452C143.234 85.1452 142.417 85.4084 141.752 85.9347C141.087 86.4609 140.584 87.1903 140.243 88.1229C139.901 89.0554 139.73 90.1357 139.73 91.3636C139.73 92.6009 139.901 93.695 140.243 94.646C140.593 95.5877 141.097 96.3263 141.752 96.8619C142.417 97.3881 143.234 97.6513 144.203 97.6513ZM168.984 102.415C166.795 102.415 164.912 101.972 163.333 101.086C161.763 100.19 160.554 98.9254 159.704 97.2912C158.855 95.6477 158.43 93.7042 158.43 91.4606C158.43 89.2724 158.855 87.3519 159.704 85.6992C160.554 84.0465 161.75 82.7585 163.291 81.8352C164.843 80.9119 166.661 80.4503 168.748 80.4503C170.152 80.4503 171.458 80.6765 172.668 81.1289C173.886 81.5721 174.948 82.2415 175.853 83.1371C176.767 84.0327 177.478 85.1591 177.986 86.5163C178.494 87.8643 178.747 89.4432 178.747 91.2528V92.8732H160.785V89.217H173.194C173.194 88.3675 173.009 87.6151 172.64 86.9595C172.271 86.304 171.758 85.7915 171.103 85.4222C170.456 85.0437 169.704 84.8544 168.845 84.8544C167.949 84.8544 167.155 85.0621 166.463 85.4776C165.78 85.8839 165.244 86.4332 164.856 87.1257C164.469 87.8089 164.27 88.5707 164.261 89.4109V92.8871C164.261 93.9396 164.455 94.8491 164.843 95.6154C165.24 96.3817 165.798 96.9727 166.518 97.3881C167.239 97.8036 168.093 98.0114 169.081 98.0114C169.736 98.0114 170.336 97.919 170.881 97.7344C171.426 97.5497 171.892 97.2727 172.28 96.9034C172.668 96.5341 172.963 96.0817 173.166 95.5462L178.623 95.9062C178.346 97.2173 177.778 98.3622 176.919 99.3409C176.07 100.31 174.971 101.067 173.623 101.612C172.284 102.148 170.738 102.415 168.984 102.415ZM182.598 102V80.7273H188.317V84.4389H188.539C188.927 83.1186 189.578 82.1214 190.492 81.4474C191.406 80.7642 192.458 80.4226 193.649 80.4226C193.945 80.4226 194.263 80.4411 194.605 80.478C194.947 80.5149 195.247 80.5657 195.505 80.6303V85.8654C195.228 85.7823 194.845 85.7085 194.356 85.6438C193.866 85.5792 193.419 85.5469 193.012 85.5469C192.144 85.5469 191.369 85.7362 190.686 86.1147C190.012 86.484 189.476 87.0011 189.079 87.6658C188.691 88.3306 188.497 89.0969 188.497 89.9648V102H182.598ZM207.26 102.415C205.072 102.415 203.188 101.972 201.609 101.086C200.04 100.19 198.83 98.9254 197.981 97.2912C197.131 95.6477 196.707 93.7042 196.707 91.4606C196.707 89.2724 197.131 87.3519 197.981 85.6992C198.83 84.0465 200.026 82.7585 201.568 81.8352C203.119 80.9119 204.938 80.4503 207.025 80.4503C208.428 80.4503 209.734 80.6765 210.944 81.1289C212.163 81.5721 213.224 82.2415 214.129 83.1371C215.043 84.0327 215.754 85.1591 216.262 86.5163C216.77 87.8643 217.024 89.4432 217.024 91.2528V92.8732H199.061V89.217H211.47C211.47 88.3675 211.286 87.6151 210.916 86.9595C210.547 86.304 210.034 85.7915 209.379 85.4222C208.733 85.0437 207.98 84.8544 207.121 84.8544C206.226 84.8544 205.432 85.0621 204.739 85.4776C204.056 85.8839 203.521 86.4332 203.133 87.1257C202.745 87.8089 202.547 88.5707 202.537 89.4109V92.8871C202.537 93.9396 202.731 94.8491 203.119 95.6154C203.516 96.3817 204.075 96.9727 204.795 97.3881C205.515 97.8036 206.369 98.0114 207.357 98.0114C208.012 98.0114 208.613 97.919 209.157 97.7344C209.702 97.5497 210.168 97.2727 210.556 96.9034C210.944 96.5341 211.239 96.0817 211.442 95.5462L216.899 95.9062C216.622 97.2173 216.054 98.3622 215.196 99.3409C214.346 100.31 213.248 101.067 211.9 101.612C210.561 102.148 209.014 102.415 207.26 102.415ZM230.485 102.415C228.306 102.415 226.432 101.954 224.863 101.031C223.302 100.098 222.102 98.8054 221.262 97.1527C220.431 95.5 220.015 93.598 220.015 91.4467C220.015 89.2678 220.435 87.3565 221.276 85.7131C222.125 84.0604 223.33 82.7724 224.89 81.8491C226.451 80.9165 228.306 80.4503 230.458 80.4503C232.314 80.4503 233.939 80.7873 235.333 81.4613C236.727 82.1353 237.83 83.0817 238.643 84.3004C239.455 85.5192 239.903 86.9503 239.986 88.5938H234.419C234.262 87.532 233.846 86.6779 233.172 86.0316C232.507 85.3761 231.635 85.0483 230.555 85.0483C229.641 85.0483 228.842 85.2976 228.159 85.7962C227.485 86.2855 226.958 87.0011 226.58 87.9428C226.201 88.8846 226.012 90.0249 226.012 91.3636C226.012 92.7209 226.197 93.875 226.566 94.826C226.945 95.777 227.475 96.5018 228.159 97.0004C228.842 97.4989 229.641 97.7482 230.555 97.7482C231.229 97.7482 231.833 97.6097 232.369 97.3327C232.914 97.0558 233.362 96.6541 233.712 96.1278C234.072 95.5923 234.308 94.9506 234.419 94.2028H239.986C239.894 95.8278 239.451 97.2589 238.657 98.4961C237.872 99.7241 236.787 100.684 235.402 101.377C234.017 102.069 232.378 102.415 230.485 102.415ZM229.1 101.889H231.815L231.593 103.094C232.544 103.242 233.32 103.597 233.92 104.161C234.529 104.724 234.839 105.49 234.848 106.46C234.857 107.835 234.22 108.929 232.937 109.742C231.653 110.564 229.853 110.974 227.536 110.974L227.48 108.343C228.643 108.343 229.553 108.2 230.208 107.914C230.873 107.637 231.219 107.203 231.247 106.612C231.266 106.049 231.049 105.619 230.596 105.324C230.144 105.028 229.438 104.821 228.477 104.701L229.1 101.889ZM253.375 102.415C251.224 102.415 249.363 101.958 247.794 101.044C246.233 100.121 245.028 98.8377 244.179 97.1942C243.33 95.5415 242.905 93.6257 242.905 91.4467C242.905 89.2493 243.33 87.3288 244.179 85.6854C245.028 84.0327 246.233 82.7493 247.794 81.8352C249.363 80.9119 251.224 80.4503 253.375 80.4503C255.526 80.4503 257.382 80.9119 258.943 81.8352C260.512 82.7493 261.722 84.0327 262.571 85.6854C263.421 87.3288 263.845 89.2493 263.845 91.4467C263.845 93.6257 263.421 95.5415 262.571 97.1942C261.722 98.8377 260.512 100.121 258.943 101.044C257.382 101.958 255.526 102.415 253.375 102.415ZM253.403 97.8452C254.381 97.8452 255.199 97.5682 255.854 97.0142C256.51 96.451 257.004 95.6847 257.336 94.7152C257.678 93.7457 257.848 92.6424 257.848 91.4052C257.848 90.168 257.678 89.0646 257.336 88.0952C257.004 87.1257 256.51 86.3594 255.854 85.7962C255.199 85.233 254.381 84.9513 253.403 84.9513C252.415 84.9513 251.584 85.233 250.91 85.7962C250.245 86.3594 249.742 87.1257 249.4 88.0952C249.068 89.0646 248.902 90.168 248.902 91.4052C248.902 92.6424 249.068 93.7457 249.4 94.7152C249.742 95.6847 250.245 96.451 250.91 97.0142C251.584 97.5682 252.415 97.8452 253.403 97.8452ZM271.13 102.36C270.216 102.36 269.431 102.037 268.776 101.391C268.129 100.735 267.806 99.9503 267.806 99.0362C267.806 98.1314 268.129 97.3558 268.776 96.7095C269.431 96.0632 270.216 95.7401 271.13 95.7401C272.016 95.7401 272.792 96.0632 273.457 96.7095C274.122 97.3558 274.454 98.1314 274.454 99.0362C274.454 99.6456 274.297 100.204 273.983 100.712C273.678 101.211 273.277 101.612 272.778 101.917C272.28 102.212 271.73 102.36 271.13 102.36ZM271.13 87.4581C270.216 87.4581 269.431 87.1349 268.776 86.4886C268.129 85.8423 267.806 85.0575 267.806 84.1342C267.806 83.2294 268.129 82.4585 268.776 81.8214C269.431 81.1751 270.216 80.8519 271.13 80.8519C272.016 80.8519 272.792 81.1751 273.457 81.8214C274.122 82.4585 274.454 83.2294 274.454 84.1342C274.454 84.7528 274.297 85.3161 273.983 85.8239C273.678 86.3224 273.277 86.7195 272.778 87.0149C272.28 87.3104 271.73 87.4581 271.13 87.4581Z" fill="white"/>
</g>
<g filter="url(#filter2_d_368_130)">
<path d="M344.946 51.7273C344.78 50.3239 344.106 49.2344 342.924 48.4588C341.742 47.6832 340.293 47.2955 338.575 47.2955C337.32 47.2955 336.221 47.4986 335.279 47.9048C334.347 48.3111 333.617 48.8697 333.091 49.5806C332.574 50.2915 332.315 51.0994 332.315 52.0043C332.315 52.7614 332.495 53.4123 332.855 53.957C333.225 54.4925 333.696 54.9403 334.268 55.3004C334.841 55.6513 335.441 55.9421 336.069 56.1729C336.696 56.3945 337.273 56.5746 337.8 56.7131L340.68 57.4886C341.419 57.6825 342.241 57.9503 343.146 58.2919C344.06 58.6335 344.932 59.0998 345.763 59.6907C346.603 60.2724 347.296 61.0202 347.841 61.9343C348.385 62.8484 348.658 63.9702 348.658 65.2997C348.658 66.8324 348.256 68.2173 347.453 69.4545C346.659 70.6918 345.495 71.6751 343.963 72.4045C342.439 73.1339 340.588 73.4986 338.409 73.4986C336.378 73.4986 334.619 73.1708 333.132 72.5153C331.655 71.8597 330.492 70.9457 329.642 69.7731C328.802 68.6005 328.327 67.2386 328.216 65.6875H331.761C331.854 66.7585 332.214 67.6449 332.842 68.3466C333.479 69.0391 334.282 69.5561 335.251 69.8977C336.23 70.2301 337.283 70.3963 338.409 70.3963C339.72 70.3963 340.897 70.1839 341.941 69.7592C342.984 69.3253 343.81 68.7251 344.42 67.9588C345.029 67.1832 345.334 66.2784 345.334 65.2443C345.334 64.3026 345.071 63.5362 344.544 62.9453C344.018 62.3544 343.326 61.8743 342.467 61.505C341.608 61.1357 340.68 60.8125 339.683 60.5355L336.193 59.5384C333.977 58.9013 332.223 57.9918 330.93 56.81C329.638 55.6282 328.991 54.0817 328.991 52.1705C328.991 50.5824 329.421 49.1974 330.279 48.0156C331.147 46.8246 332.311 45.9013 333.77 45.2457C335.238 44.581 336.876 44.2486 338.686 44.2486C340.514 44.2486 342.139 44.5763 343.561 45.2319C344.983 45.8782 346.109 46.7646 346.94 47.891C347.781 49.0174 348.224 50.2962 348.27 51.7273H344.946ZM360.122 73.4986C358.774 73.4986 357.55 73.2447 356.451 72.7369C355.353 72.2198 354.48 71.4766 353.834 70.5071C353.188 69.5284 352.864 68.3466 352.864 66.9616C352.864 65.7429 353.104 64.755 353.585 63.9979C354.065 63.2315 354.706 62.6314 355.51 62.1974C356.313 61.7635 357.199 61.4403 358.169 61.228C359.147 61.0064 360.131 60.831 361.119 60.7017C362.411 60.5355 363.459 60.4109 364.263 60.3278C365.075 60.2354 365.666 60.0831 366.035 59.8707C366.414 59.6584 366.603 59.2891 366.603 58.7628V58.652C366.603 57.2855 366.229 56.2237 365.481 55.4666C364.743 54.7095 363.621 54.331 362.116 54.331C360.555 54.331 359.332 54.6726 358.446 55.3558C357.559 56.0391 356.936 56.7685 356.576 57.544L353.474 56.4361C354.028 55.1435 354.766 54.1371 355.69 53.4169C356.622 52.6875 357.638 52.1797 358.737 51.8935C359.845 51.598 360.934 51.4503 362.005 51.4503C362.688 51.4503 363.473 51.5334 364.359 51.6996C365.255 51.8565 366.118 52.1843 366.949 52.6829C367.79 53.1815 368.487 53.9339 369.041 54.9403C369.595 55.9467 369.872 57.2947 369.872 58.9844V73H366.603V70.1193H366.437C366.215 70.581 365.846 71.0749 365.329 71.6012C364.812 72.1275 364.124 72.5753 363.265 72.9446C362.407 73.3139 361.359 73.4986 360.122 73.4986ZM360.62 70.5625C361.913 70.5625 363.002 70.3086 363.889 69.8008C364.784 69.293 365.458 68.6374 365.911 67.8342C366.372 67.0309 366.603 66.1861 366.603 65.2997V62.3082C366.465 62.4744 366.16 62.6268 365.689 62.7653C365.227 62.8945 364.692 63.0099 364.082 63.1115C363.482 63.2038 362.896 63.2869 362.324 63.3608C361.76 63.4254 361.303 63.4808 360.953 63.527C360.103 63.6378 359.309 63.8178 358.57 64.0671C357.841 64.3072 357.25 64.6719 356.798 65.1612C356.354 65.6413 356.133 66.2969 356.133 67.1278C356.133 68.2635 356.553 69.1222 357.393 69.7038C358.243 70.2763 359.318 70.5625 360.62 70.5625ZM357.961 49.179L355.413 49.0682C355.413 47.6555 355.814 46.5014 356.618 45.6058C357.43 44.701 358.432 44.2486 359.623 44.2486C360.149 44.2486 360.616 44.3409 361.022 44.5256C361.428 44.701 361.816 44.9041 362.185 45.1349C362.554 45.3658 362.933 45.5735 363.321 45.7582C363.718 45.9336 364.166 46.0213 364.664 46.0213C365.19 46.0213 365.634 45.8182 365.994 45.4119C366.363 44.9964 366.548 44.4979 366.548 43.9162L369.041 44.1378C369.041 45.5781 368.634 46.723 367.822 47.5724C367.019 48.4219 366.021 48.8466 364.83 48.8466C364.193 48.8466 363.667 48.7589 363.252 48.5835C362.836 48.3988 362.467 48.1911 362.144 47.9602C361.82 47.7294 361.479 47.5263 361.119 47.3509C360.759 47.1662 360.315 47.0739 359.789 47.0739C359.263 47.0739 358.824 47.2816 358.473 47.6971C358.132 48.1033 357.961 48.5973 357.961 49.179ZM384.479 73.4432C382.559 73.4432 380.874 72.9862 379.424 72.0721C377.984 71.158 376.857 69.8793 376.045 68.2358C375.242 66.5923 374.84 64.6719 374.84 62.4744C374.84 60.2585 375.242 58.3242 376.045 56.6715C376.857 55.0188 377.984 53.7354 379.424 52.8214C380.874 51.9073 382.559 51.4503 384.479 51.4503C386.4 51.4503 388.08 51.9073 389.52 52.8214C390.97 53.7354 392.096 55.0188 392.9 56.6715C393.712 58.3242 394.118 60.2585 394.118 62.4744C394.118 64.6719 393.712 66.5923 392.9 68.2358C392.096 69.8793 390.97 71.158 389.52 72.0721C388.08 72.9862 386.4 73.4432 384.479 73.4432ZM384.479 70.5071C385.938 70.5071 387.138 70.1332 388.08 69.3853C389.022 68.6374 389.719 67.6541 390.171 66.4354C390.624 65.2166 390.85 63.8963 390.85 62.4744C390.85 61.0526 390.624 59.7276 390.171 58.4996C389.719 57.2717 389.022 56.2791 388.08 55.522C387.138 54.7649 385.938 54.3864 384.479 54.3864C383.02 54.3864 381.82 54.7649 380.878 55.522C379.937 56.2791 379.24 57.2717 378.787 58.4996C378.335 59.7276 378.108 61.0526 378.108 62.4744C378.108 63.8963 378.335 65.2166 378.787 66.4354C379.24 67.6541 379.937 68.6374 380.878 69.3853C381.82 70.1332 383.02 70.5071 384.479 70.5071ZM410.076 51.7273H413.345V74.5511C413.345 75.8622 413.119 76.9979 412.666 77.9581C412.223 78.9183 411.549 79.6616 410.644 80.1879C409.749 80.7141 408.618 80.9773 407.251 80.9773C407.14 80.9773 407.03 80.9773 406.919 80.9773C406.808 80.9773 406.697 80.9773 406.586 80.9773V77.9304C406.697 77.9304 406.799 77.9304 406.891 77.9304C406.983 77.9304 407.085 77.9304 407.196 77.9304C408.193 77.9304 408.922 77.6349 409.384 77.044C409.846 76.4624 410.076 75.6314 410.076 74.5511V51.7273ZM411.683 48.1818C411.046 48.1818 410.497 47.9648 410.035 47.5309C409.582 47.0969 409.356 46.5753 409.356 45.9659C409.356 45.3565 409.582 44.8349 410.035 44.4009C410.497 43.967 411.046 43.75 411.683 43.75C412.32 43.75 412.865 43.967 413.317 44.4009C413.779 44.8349 414.01 45.3565 414.01 45.9659C414.01 46.5753 413.779 47.0969 413.317 47.5309C412.865 47.9648 412.32 48.1818 411.683 48.1818ZM427.973 73.4432C426.053 73.4432 424.368 72.9862 422.918 72.0721C421.478 71.158 420.352 69.8793 419.539 68.2358C418.736 66.5923 418.334 64.6719 418.334 62.4744C418.334 60.2585 418.736 58.3242 419.539 56.6715C420.352 55.0188 421.478 53.7354 422.918 52.8214C424.368 51.9073 426.053 51.4503 427.973 51.4503C429.894 51.4503 431.574 51.9073 433.015 52.8214C434.464 53.7354 435.591 55.0188 436.394 56.6715C437.206 58.3242 437.613 60.2585 437.613 62.4744C437.613 64.6719 437.206 66.5923 436.394 68.2358C435.591 69.8793 434.464 71.158 433.015 72.0721C431.574 72.9862 429.894 73.4432 427.973 73.4432ZM427.973 70.5071C429.432 70.5071 430.632 70.1332 431.574 69.3853C432.516 68.6374 433.213 67.6541 433.665 66.4354C434.118 65.2166 434.344 63.8963 434.344 62.4744C434.344 61.0526 434.118 59.7276 433.665 58.4996C433.213 57.2717 432.516 56.2791 431.574 55.522C430.632 54.7649 429.432 54.3864 427.973 54.3864C426.515 54.3864 425.314 54.7649 424.373 55.522C423.431 56.2791 422.734 57.2717 422.281 58.4996C421.829 59.7276 421.603 61.0526 421.603 62.4744C421.603 63.8963 421.829 65.2166 422.281 66.4354C422.734 67.6541 423.431 68.6374 424.373 69.3853C425.314 70.1332 426.515 70.5071 427.973 70.5071ZM448.862 73.4986C447.514 73.4986 446.29 73.2447 445.192 72.7369C444.093 72.2198 443.22 71.4766 442.574 70.5071C441.928 69.5284 441.605 68.3466 441.605 66.9616C441.605 65.7429 441.845 64.755 442.325 63.9979C442.805 63.2315 443.447 62.6314 444.25 62.1974C445.053 61.7635 445.94 61.4403 446.909 61.228C447.888 61.0064 448.871 60.831 449.859 60.7017C451.152 60.5355 452.199 60.4109 453.003 60.3278C453.815 60.2354 454.406 60.0831 454.775 59.8707C455.154 59.6584 455.343 59.2891 455.343 58.7628V58.652C455.343 57.2855 454.969 56.2237 454.222 55.4666C453.483 54.7095 452.361 54.331 450.856 54.331C449.296 54.331 448.072 54.6726 447.186 55.3558C446.3 56.0391 445.676 56.7685 445.316 57.544L442.214 56.4361C442.768 55.1435 443.507 54.1371 444.43 53.4169C445.362 52.6875 446.378 52.1797 447.477 51.8935C448.585 51.598 449.674 51.4503 450.745 51.4503C451.429 51.4503 452.213 51.5334 453.1 51.6996C453.995 51.8565 454.859 52.1843 455.69 52.6829C456.53 53.1815 457.227 53.9339 457.781 54.9403C458.335 55.9467 458.612 57.2947 458.612 58.9844V73H455.343V70.1193H455.177C454.956 70.581 454.586 71.0749 454.069 71.6012C453.552 72.1275 452.864 72.5753 452.006 72.9446C451.147 73.3139 450.099 73.4986 448.862 73.4986ZM449.36 70.5625C450.653 70.5625 451.742 70.3086 452.629 69.8008C453.524 69.293 454.198 68.6374 454.651 67.8342C455.112 67.0309 455.343 66.1861 455.343 65.2997V62.3082C455.205 62.4744 454.9 62.6268 454.429 62.7653C453.968 62.8945 453.432 63.0099 452.823 63.1115C452.223 63.2038 451.636 63.2869 451.064 63.3608C450.501 63.4254 450.044 63.4808 449.693 63.527C448.843 63.6378 448.049 63.8178 447.311 64.0671C446.581 64.3072 445.99 64.6719 445.538 65.1612C445.095 65.6413 444.873 66.2969 444.873 67.1278C444.873 68.2635 445.293 69.1222 446.133 69.7038C446.983 70.2763 448.059 70.5625 449.36 70.5625ZM479.092 80.9773V69.7315H478.815C478.575 70.1193 478.233 70.6087 477.79 71.1996C477.347 71.7812 476.714 72.3029 475.892 72.7646C475.071 73.217 473.977 73.4432 472.61 73.4432C470.837 73.4432 469.272 72.9954 467.915 72.0998C466.558 71.195 465.496 69.9208 464.73 68.2773C463.963 66.6246 463.58 64.6719 463.58 62.419C463.58 60.1847 463.963 58.2457 464.73 56.6023C465.496 54.9588 466.563 53.6893 467.929 52.7937C469.295 51.8981 470.874 51.4503 472.665 51.4503C474.05 51.4503 475.145 51.6811 475.948 52.1428C476.76 52.5952 477.379 53.1122 477.804 53.6939C478.238 54.2663 478.575 54.7372 478.815 55.1065H479.202V51.7273H482.36V80.9773H479.092ZM473.053 70.5071C474.364 70.5071 475.472 70.1655 476.377 69.4822C477.282 68.7898 477.97 67.8342 478.441 66.6154C478.912 65.3874 479.147 63.9702 479.147 62.3636C479.147 60.7756 478.916 59.386 478.455 58.195C477.993 56.9947 477.31 56.0621 476.405 55.3974C475.5 54.7234 474.383 54.3864 473.053 54.3864C471.668 54.3864 470.514 54.7418 469.591 55.4528C468.677 56.1545 467.989 57.1101 467.527 58.3196C467.075 59.5199 466.849 60.8679 466.849 62.3636C466.849 63.8778 467.08 65.2536 467.541 66.4908C468.012 67.7187 468.705 68.6974 469.619 69.4268C470.542 70.147 471.687 70.5071 473.053 70.5071ZM501.749 64.3026V51.7273H505.018V73H501.749V69.3991H501.528C501.029 70.4794 500.254 71.3981 499.201 72.1552C498.148 72.9031 496.819 73.277 495.212 73.277C493.883 73.277 492.701 72.9862 491.667 72.4045C490.633 71.8136 489.82 70.9272 489.229 69.7454C488.638 68.5543 488.343 67.054 488.343 65.2443V51.7273H491.612V65.0227C491.612 66.5739 492.045 67.8111 492.913 68.7344C493.79 69.6577 494.908 70.1193 496.265 70.1193C497.077 70.1193 497.904 69.9116 498.744 69.4961C499.593 69.0806 500.304 68.4435 500.877 67.5849C501.458 66.7262 501.749 65.6321 501.749 64.3026ZM511.004 73V51.7273H514.273V73H511.004ZM512.666 48.1818C512.029 48.1818 511.48 47.9648 511.018 47.5309C510.566 47.0969 510.339 46.5753 510.339 45.9659C510.339 45.3565 510.566 44.8349 511.018 44.4009C511.48 43.967 512.029 43.75 512.666 43.75C513.303 43.75 513.848 43.967 514.3 44.4009C514.762 44.8349 514.993 45.3565 514.993 45.9659C514.993 46.5753 514.762 47.0969 514.3 47.5309C513.848 47.9648 513.303 48.1818 512.666 48.1818ZM520.259 73V51.7273H523.417V55.0511H523.694C524.137 53.9155 524.852 53.0337 525.84 52.4059C526.828 51.7688 528.015 51.4503 529.4 51.4503C530.803 51.4503 531.971 51.7688 532.904 52.4059C533.845 53.0337 534.579 53.9155 535.106 55.0511H535.327C535.872 53.9524 536.689 53.0799 537.779 52.4336C538.868 51.7781 540.175 51.4503 541.698 51.4503C543.6 51.4503 545.156 52.0458 546.365 53.2369C547.575 54.4187 548.18 56.2607 548.18 58.7628V73H544.911V58.7628C544.911 57.1932 544.482 56.0714 543.623 55.3974C542.764 54.7234 541.753 54.3864 540.59 54.3864C539.094 54.3864 537.936 54.8388 537.114 55.7436C536.292 56.6392 535.881 57.7749 535.881 59.1506V73H532.557V58.4304C532.557 57.2209 532.165 56.2468 531.38 55.5082C530.595 54.7603 529.584 54.3864 528.347 54.3864C527.498 54.3864 526.704 54.6126 525.965 55.065C525.236 55.5174 524.645 56.1452 524.192 56.9485C523.749 57.7425 523.528 58.6612 523.528 59.7045V73H520.259ZM573.157 73.4432C571.384 73.4432 569.819 72.9954 568.462 72.0998C567.105 71.195 566.043 69.9208 565.277 68.2773C564.51 66.6246 564.127 64.6719 564.127 62.419C564.127 60.1847 564.51 58.2457 565.277 56.6023C566.043 54.9588 567.109 53.6893 568.476 52.7937C569.842 51.8981 571.421 51.4503 573.212 51.4503C574.597 51.4503 575.691 51.6811 576.495 52.1428C577.307 52.5952 577.926 53.1122 578.35 53.6939C578.784 54.2663 579.121 54.7372 579.362 55.1065H579.638V44.6364H582.907V73H579.749V69.7315H579.362C579.121 70.1193 578.78 70.6087 578.337 71.1996C577.893 71.7812 577.261 72.3029 576.439 72.7646C575.618 73.217 574.523 73.4432 573.157 73.4432ZM573.6 70.5071C574.911 70.5071 576.019 70.1655 576.924 69.4822C577.829 68.7898 578.517 67.8342 578.988 66.6154C579.458 65.3874 579.694 63.9702 579.694 62.3636C579.694 60.7756 579.463 59.386 579.001 58.195C578.54 56.9947 577.857 56.0621 576.952 55.3974C576.047 54.7234 574.93 54.3864 573.6 54.3864C572.215 54.3864 571.061 54.7418 570.138 55.4528C569.224 56.1545 568.536 57.1101 568.074 58.3196C567.622 59.5199 567.396 60.8679 567.396 62.3636C567.396 63.8778 567.626 65.2536 568.088 66.4908C568.559 67.7187 569.251 68.6974 570.165 69.4268C571.089 70.147 572.234 70.5071 573.6 70.5071ZM595.607 73.4986C594.259 73.4986 593.036 73.2447 591.937 72.7369C590.838 72.2198 589.966 71.4766 589.319 70.5071C588.673 69.5284 588.35 68.3466 588.35 66.9616C588.35 65.7429 588.59 64.755 589.07 63.9979C589.55 63.2315 590.192 62.6314 590.995 62.1974C591.798 61.7635 592.685 61.4403 593.654 61.228C594.633 61.0064 595.616 60.831 596.604 60.7017C597.897 60.5355 598.945 60.4109 599.748 60.3278C600.56 60.2354 601.151 60.0831 601.521 59.8707C601.899 59.6584 602.088 59.2891 602.088 58.7628V58.652C602.088 57.2855 601.714 56.2237 600.967 55.4666C600.228 54.7095 599.106 54.331 597.601 54.331C596.041 54.331 594.817 54.6726 593.931 55.3558C593.045 56.0391 592.422 56.7685 592.061 57.544L588.959 56.4361C589.513 55.1435 590.252 54.1371 591.175 53.4169C592.108 52.6875 593.123 52.1797 594.222 51.8935C595.33 51.598 596.419 51.4503 597.49 51.4503C598.174 51.4503 598.958 51.5334 599.845 51.6996C600.74 51.8565 601.604 52.1843 602.435 52.6829C603.275 53.1815 603.972 53.9339 604.526 54.9403C605.08 55.9467 605.357 57.2947 605.357 58.9844V73H602.088V70.1193H601.922C601.701 70.581 601.331 71.0749 600.814 71.6012C600.297 72.1275 599.609 72.5753 598.751 72.9446C597.892 73.3139 596.844 73.4986 595.607 73.4986ZM596.105 70.5625C597.398 70.5625 598.488 70.3086 599.374 69.8008C600.27 69.293 600.944 68.6374 601.396 67.8342C601.858 67.0309 602.088 66.1861 602.088 65.2997V62.3082C601.95 62.4744 601.645 62.6268 601.174 62.7653C600.713 62.8945 600.177 63.0099 599.568 63.1115C598.968 63.2038 598.381 63.2869 597.809 63.3608C597.246 63.4254 596.789 63.4808 596.438 63.527C595.588 63.6378 594.794 63.8178 594.056 64.0671C593.326 64.3072 592.735 64.6719 592.283 65.1612C591.84 65.6413 591.618 66.2969 591.618 67.1278C591.618 68.2635 592.038 69.1222 592.879 69.7038C593.728 70.2763 594.804 70.5625 596.105 70.5625ZM622.734 73V44.6364H626.003V55.1065H626.28C626.52 54.7372 626.852 54.2663 627.277 53.6939C627.711 53.1122 628.33 52.5952 629.133 52.1428C629.945 51.6811 631.044 51.4503 632.429 51.4503C634.22 51.4503 635.799 51.8981 637.166 52.7937C638.532 53.6893 639.598 54.9588 640.365 56.6023C641.131 58.2457 641.514 60.1847 641.514 62.419C641.514 64.6719 641.131 66.6246 640.365 68.2773C639.598 69.9208 638.537 71.195 637.179 72.0998C635.822 72.9954 634.257 73.4432 632.484 73.4432C631.118 73.4432 630.024 73.217 629.202 72.7646C628.38 72.3029 627.748 71.7812 627.305 71.1996C626.862 70.6087 626.52 70.1193 626.28 69.7315H625.892V73H622.734ZM625.948 62.3636C625.948 63.9702 626.183 65.3874 626.654 66.6154C627.125 67.8342 627.813 68.7898 628.717 69.4822C629.622 70.1655 630.73 70.5071 632.041 70.5071C633.408 70.5071 634.548 70.147 635.462 69.4268C636.385 68.6974 637.078 67.7187 637.54 66.4908C638.01 65.2536 638.246 63.8778 638.246 62.3636C638.246 60.8679 638.015 59.5199 637.553 58.3196C637.101 57.1101 636.413 56.1545 635.49 55.4528C634.576 54.7418 633.426 54.3864 632.041 54.3864C630.712 54.3864 629.595 54.7234 628.69 55.3974C627.785 56.0621 627.102 56.9947 626.64 58.195C626.178 59.386 625.948 60.7756 625.948 62.3636ZM652.774 73.4986C651.426 73.4986 650.203 73.2447 649.104 72.7369C648.005 72.2198 647.133 71.4766 646.486 70.5071C645.84 69.5284 645.517 68.3466 645.517 66.9616C645.517 65.7429 645.757 64.755 646.237 63.9979C646.717 63.2315 647.359 62.6314 648.162 62.1974C648.965 61.7635 649.852 61.4403 650.821 61.228C651.8 61.0064 652.783 60.831 653.771 60.7017C655.064 60.5355 656.112 60.4109 656.915 60.3278C657.727 60.2354 658.318 60.0831 658.688 59.8707C659.066 59.6584 659.255 59.2891 659.255 58.7628V58.652C659.255 57.2855 658.881 56.2237 658.134 55.4666C657.395 54.7095 656.273 54.331 654.768 54.331C653.208 54.331 651.984 54.6726 651.098 55.3558C650.212 56.0391 649.589 56.7685 649.228 57.544L646.126 56.4361C646.68 55.1435 647.419 54.1371 648.342 53.4169C649.275 52.6875 650.29 52.1797 651.389 51.8935C652.497 51.598 653.586 51.4503 654.657 51.4503C655.341 51.4503 656.125 51.5334 657.012 51.6996C657.907 51.8565 658.771 52.1843 659.602 52.6829C660.442 53.1815 661.139 53.9339 661.693 54.9403C662.247 55.9467 662.524 57.2947 662.524 58.9844V73H659.255V70.1193H659.089C658.868 70.581 658.498 71.0749 657.981 71.6012C657.464 72.1275 656.776 72.5753 655.918 72.9446C655.059 73.3139 654.011 73.4986 652.774 73.4986ZM653.272 70.5625C654.565 70.5625 655.655 70.3086 656.541 69.8008C657.437 69.293 658.111 68.6374 658.563 67.8342C659.025 67.0309 659.255 66.1861 659.255 65.2997V62.3082C659.117 62.4744 658.812 62.6268 658.341 62.7653C657.88 62.8945 657.344 63.0099 656.735 63.1115C656.135 63.2038 655.548 63.2869 654.976 63.3608C654.413 63.4254 653.956 63.4808 653.605 63.527C652.755 63.6378 651.961 63.8178 651.223 64.0671C650.493 64.3072 649.902 64.6719 649.45 65.1612C649.007 65.6413 648.785 66.2969 648.785 67.1278C648.785 68.2635 649.205 69.1222 650.046 69.7038C650.895 70.2763 651.971 70.5625 653.272 70.5625ZM668.49 73V51.7273H671.647V54.9403H671.869C672.257 53.8878 672.958 53.0337 673.974 52.3782C674.99 51.7227 676.134 51.3949 677.409 51.3949C677.649 51.3949 677.949 51.3995 678.309 51.4087C678.669 51.418 678.941 51.4318 679.126 51.4503V54.7741C679.015 54.7464 678.761 54.7049 678.364 54.6495C677.976 54.5849 677.566 54.5526 677.132 54.5526C676.097 54.5526 675.174 54.7695 674.362 55.2035C673.558 55.6282 672.921 56.2191 672.45 56.9762C671.989 57.7241 671.758 58.5781 671.758 59.5384V73H668.49ZM683 73V51.7273H686.158V54.9403H686.38C686.767 53.8878 687.469 53.0337 688.485 52.3782C689.5 51.7227 690.645 51.3949 691.919 51.3949C692.159 51.3949 692.459 51.3995 692.82 51.4087C693.18 51.418 693.452 51.4318 693.637 51.4503V54.7741C693.526 54.7464 693.272 54.7049 692.875 54.6495C692.487 54.5849 692.076 54.5526 691.642 54.5526C690.608 54.5526 689.685 54.7695 688.872 55.2035C688.069 55.6282 687.432 56.2191 686.961 56.9762C686.5 57.7241 686.269 58.5781 686.269 59.5384V73H683ZM703.771 73.4986C702.423 73.4986 701.2 73.2447 700.101 72.7369C699.002 72.2198 698.13 71.4766 697.483 70.5071C696.837 69.5284 696.514 68.3466 696.514 66.9616C696.514 65.7429 696.754 64.755 697.234 63.9979C697.714 63.2315 698.356 62.6314 699.159 62.1974C699.962 61.7635 700.849 61.4403 701.818 61.228C702.797 61.0064 703.78 60.831 704.768 60.7017C706.061 60.5355 707.109 60.4109 707.912 60.3278C708.724 60.2354 709.315 60.0831 709.685 59.8707C710.063 59.6584 710.252 59.2891 710.252 58.7628V58.652C710.252 57.2855 709.879 56.2237 709.131 55.4666C708.392 54.7095 707.27 54.331 705.765 54.331C704.205 54.331 702.982 54.6726 702.095 55.3558C701.209 56.0391 700.586 56.7685 700.225 57.544L697.123 56.4361C697.677 55.1435 698.416 54.1371 699.339 53.4169C700.272 52.6875 701.287 52.1797 702.386 51.8935C703.494 51.598 704.583 51.4503 705.654 51.4503C706.338 51.4503 707.123 51.5334 708.009 51.6996C708.904 51.8565 709.768 52.1843 710.599 52.6829C711.439 53.1815 712.136 53.9339 712.69 54.9403C713.244 55.9467 713.521 57.2947 713.521 58.9844V73H710.252V70.1193H710.086C709.865 70.581 709.495 71.0749 708.978 71.6012C708.461 72.1275 707.773 72.5753 706.915 72.9446C706.056 73.3139 705.008 73.4986 703.771 73.4986ZM704.27 70.5625C705.562 70.5625 706.652 70.3086 707.538 69.8008C708.434 69.293 709.108 68.6374 709.56 67.8342C710.022 67.0309 710.252 66.1861 710.252 65.2997V62.3082C710.114 62.4744 709.809 62.6268 709.338 62.7653C708.877 62.8945 708.341 63.0099 707.732 63.1115C707.132 63.2038 706.545 63.2869 705.973 63.3608C705.41 63.4254 704.953 63.4808 704.602 63.527C703.752 63.6378 702.958 63.8178 702.22 64.0671C701.49 64.3072 700.9 64.6719 700.447 65.1612C700.004 65.6413 699.782 66.2969 699.782 67.1278C699.782 68.2635 700.202 69.1222 701.043 69.7038C701.892 70.2763 702.968 70.5625 704.27 70.5625ZM724.362 69.1222L724.14 70.6179C723.983 71.6705 723.743 72.7969 723.42 73.9972C723.106 75.1974 722.778 76.3285 722.437 77.3903C722.095 78.4521 721.813 79.2969 721.592 79.9247H719.099C719.219 79.3338 719.376 78.5536 719.57 77.5842C719.764 76.6147 719.957 75.5298 720.151 74.3295C720.354 73.1385 720.521 71.9197 720.65 70.6733L720.816 69.1222H724.362ZM757.341 51.7273C757.174 50.3239 756.5 49.2344 755.319 48.4588C754.137 47.6832 752.687 47.2955 750.97 47.2955C749.714 47.2955 748.615 47.4986 747.674 47.9048C746.741 48.3111 746.012 48.8697 745.485 49.5806C744.968 50.2915 744.71 51.0994 744.71 52.0043C744.71 52.7614 744.89 53.4123 745.25 53.957C745.619 54.4925 746.09 54.9403 746.663 55.3004C747.235 55.6513 747.835 55.9421 748.463 56.1729C749.091 56.3945 749.668 56.5746 750.194 56.7131L753.075 57.4886C753.814 57.6825 754.635 57.9503 755.54 58.2919C756.454 58.6335 757.327 59.0998 758.158 59.6907C758.998 60.2724 759.69 61.0202 760.235 61.9343C760.78 62.8484 761.052 63.9702 761.052 65.2997C761.052 66.8324 760.651 68.2173 759.847 69.4545C759.053 70.6918 757.89 71.6751 756.357 72.4045C754.834 73.1339 752.983 73.4986 750.804 73.4986C748.772 73.4986 747.013 73.1708 745.527 72.5153C744.05 71.8597 742.886 70.9457 742.037 69.7731C741.197 68.6005 740.721 67.2386 740.61 65.6875H744.156C744.248 66.7585 744.608 67.6449 745.236 68.3466C745.873 69.0391 746.676 69.5561 747.646 69.8977C748.625 70.2301 749.677 70.3963 750.804 70.3963C752.115 70.3963 753.292 70.1839 754.335 69.7592C755.379 69.3253 756.205 68.7251 756.814 67.9588C757.424 67.1832 757.728 66.2784 757.728 65.2443C757.728 64.3026 757.465 63.5362 756.939 62.9453C756.413 62.3544 755.72 61.8743 754.862 61.505C754.003 61.1357 753.075 60.8125 752.078 60.5355L748.588 59.5384C746.372 58.9013 744.618 57.9918 743.325 56.81C742.032 55.6282 741.386 54.0817 741.386 52.1705C741.386 50.5824 741.815 49.1974 742.674 48.0156C743.542 46.8246 744.705 45.9013 746.164 45.2457C747.632 44.581 749.271 44.2486 751.081 44.2486C752.909 44.2486 754.534 44.5763 755.956 45.2319C757.377 45.8782 758.504 46.7646 759.335 47.891C760.175 49.0174 760.618 50.2962 760.664 51.7273H757.341ZM766.699 73V44.6364H776.283C778.508 44.6364 780.327 45.038 781.74 45.8413C783.162 46.6353 784.214 47.7109 784.897 49.0682C785.581 50.4254 785.922 51.9396 785.922 53.6108C785.922 55.282 785.581 56.8008 784.897 58.1673C784.223 59.5337 783.18 60.6232 781.767 61.4357C780.355 62.239 778.545 62.6406 776.339 62.6406H769.469V59.5938H776.228C777.751 59.5938 778.975 59.3306 779.898 58.8043C780.821 58.2781 781.491 57.5671 781.906 56.6715C782.331 55.7667 782.543 54.7464 782.543 53.6108C782.543 52.4751 782.331 51.4595 781.906 50.5639C781.491 49.6683 780.816 48.9666 779.884 48.4588C778.951 47.9418 777.714 47.6832 776.172 47.6832H770.134V73H766.699ZM792.061 73.2216C791.378 73.2216 790.792 72.9769 790.302 72.4876C789.813 71.9982 789.568 71.4119 789.568 70.7287C789.568 70.0455 789.813 69.4592 790.302 68.9698C790.792 68.4805 791.378 68.2358 792.061 68.2358C792.744 68.2358 793.331 68.4805 793.82 68.9698C794.309 69.4592 794.554 70.0455 794.554 70.7287C794.554 71.1811 794.439 71.5966 794.208 71.9751C793.986 72.3537 793.686 72.6584 793.308 72.8892C792.938 73.1108 792.523 73.2216 792.061 73.2216ZM811.831 73V44.6364H821.415C823.631 44.6364 825.45 45.0149 826.872 45.772C828.294 46.5199 829.346 47.5494 830.029 48.8604C830.713 50.1715 831.054 51.6626 831.054 53.3338C831.054 55.005 830.713 56.4869 830.029 57.7795C829.346 59.0721 828.298 60.0877 826.885 60.8263C825.473 61.5558 823.668 61.9205 821.47 61.9205H813.715V58.8182H821.36C822.874 58.8182 824.093 58.5966 825.016 58.1534C825.948 57.7102 826.622 57.0824 827.038 56.2699C827.463 55.4482 827.675 54.4695 827.675 53.3338C827.675 52.1982 827.463 51.2056 827.038 50.3562C826.613 49.5067 825.934 48.8512 825.002 48.3896C824.069 47.9187 822.837 47.6832 821.304 47.6832H815.266V73H811.831ZM825.182 60.2585L832.162 73H828.173L821.304 60.2585H825.182ZM849.741 64.3026V51.7273H853.009V73H849.741V69.3991H849.519C849.02 70.4794 848.245 71.3981 847.192 72.1552C846.14 72.9031 844.81 73.277 843.204 73.277C841.874 73.277 840.692 72.9862 839.658 72.4045C838.624 71.8136 837.812 70.9272 837.221 69.7454C836.63 68.5543 836.334 67.054 836.334 65.2443V51.7273H839.603V65.0227C839.603 66.5739 840.037 67.8111 840.905 68.7344C841.782 69.6577 842.899 70.1193 844.256 70.1193C845.069 70.1193 845.895 69.9116 846.735 69.4961C847.585 69.0806 848.296 68.4435 848.868 67.5849C849.45 66.7262 849.741 65.6321 849.741 64.3026ZM865.255 73.4986C863.907 73.4986 862.684 73.2447 861.585 72.7369C860.487 72.2198 859.614 71.4766 858.968 70.5071C858.321 69.5284 857.998 68.3466 857.998 66.9616C857.998 65.7429 858.238 64.755 858.718 63.9979C859.199 63.2315 859.84 62.6314 860.643 62.1974C861.447 61.7635 862.333 61.4403 863.303 61.228C864.281 61.0064 865.265 60.831 866.252 60.7017C867.545 60.5355 868.593 60.4109 869.396 60.3278C870.209 60.2354 870.8 60.0831 871.169 59.8707C871.548 59.6584 871.737 59.2891 871.737 58.7628V58.652C871.737 57.2855 871.363 56.2237 870.615 55.4666C869.876 54.7095 868.755 54.331 867.25 54.331C865.689 54.331 864.466 54.6726 863.58 55.3558C862.693 56.0391 862.07 56.7685 861.71 57.544L858.608 56.4361C859.162 55.1435 859.9 54.1371 860.824 53.4169C861.756 52.6875 862.772 52.1797 863.87 51.8935C864.978 51.598 866.068 51.4503 867.139 51.4503C867.822 51.4503 868.607 51.5334 869.493 51.6996C870.389 51.8565 871.252 52.1843 872.083 52.6829C872.923 53.1815 873.62 53.9339 874.174 54.9403C874.728 55.9467 875.005 57.2947 875.005 58.9844V73H871.737V70.1193H871.571C871.349 70.581 870.98 71.0749 870.463 71.6012C869.946 72.1275 869.258 72.5753 868.399 72.9446C867.54 73.3139 866.493 73.4986 865.255 73.4986ZM865.754 70.5625C867.047 70.5625 868.136 70.3086 869.022 69.8008C869.918 69.293 870.592 68.6374 871.044 67.8342C871.506 67.0309 871.737 66.1861 871.737 65.2997V62.3082C871.598 62.4744 871.294 62.6268 870.823 62.7653C870.361 62.8945 869.826 63.0099 869.216 63.1115C868.616 63.2038 868.03 63.2869 867.457 63.3608C866.894 63.4254 866.437 63.4808 866.086 63.527C865.237 63.6378 864.443 63.8178 863.704 64.0671C862.975 64.3072 862.384 64.6719 861.931 65.1612C861.488 65.6413 861.267 66.2969 861.267 67.1278C861.267 68.2635 861.687 69.1222 862.527 69.7038C863.376 70.2763 864.452 70.5625 865.754 70.5625ZM899.972 73.4432C898.2 73.4432 896.635 72.9954 895.277 72.0998C893.92 71.195 892.858 69.9208 892.092 68.2773C891.326 66.6246 890.943 64.6719 890.943 62.419C890.943 60.1847 891.326 58.2457 892.092 56.6023C892.858 54.9588 893.925 53.6893 895.291 52.7937C896.658 51.8981 898.237 51.4503 900.028 51.4503C901.413 51.4503 902.507 51.6811 903.31 52.1428C904.123 52.5952 904.741 53.1122 905.166 53.6939C905.6 54.2663 905.937 54.7372 906.177 55.1065H906.454V44.6364H909.722V73H906.565V69.7315H906.177C905.937 70.1193 905.595 70.6087 905.152 71.1996C904.709 71.7812 904.076 72.3029 903.255 72.7646C902.433 73.217 901.339 73.4432 899.972 73.4432ZM900.416 70.5071C901.727 70.5071 902.835 70.1655 903.739 69.4822C904.644 68.7898 905.332 67.8342 905.803 66.6154C906.274 65.3874 906.509 63.9702 906.509 62.3636C906.509 60.7756 906.278 59.386 905.817 58.195C905.355 56.9947 904.672 56.0621 903.767 55.3974C902.862 54.7234 901.745 54.3864 900.416 54.3864C899.031 54.3864 897.877 54.7418 896.953 55.4528C896.039 56.1545 895.351 57.1101 894.89 58.3196C894.437 59.5199 894.211 60.8679 894.211 62.3636C894.211 63.8778 894.442 65.2536 894.903 66.4908C895.374 67.7187 896.067 68.6974 896.981 69.4268C897.904 70.147 899.049 70.5071 900.416 70.5071ZM922.422 73.4986C921.074 73.4986 919.851 73.2447 918.752 72.7369C917.653 72.2198 916.781 71.4766 916.135 70.5071C915.488 69.5284 915.165 68.3466 915.165 66.9616C915.165 65.7429 915.405 64.755 915.885 63.9979C916.366 63.2315 917.007 62.6314 917.81 62.1974C918.614 61.7635 919.5 61.4403 920.47 61.228C921.448 61.0064 922.432 60.831 923.419 60.7017C924.712 60.5355 925.76 60.4109 926.563 60.3278C927.376 60.2354 927.967 60.0831 928.336 59.8707C928.715 59.6584 928.904 59.2891 928.904 58.7628V58.652C928.904 57.2855 928.53 56.2237 927.782 55.4666C927.043 54.7095 925.922 54.331 924.417 54.331C922.856 54.331 921.633 54.6726 920.747 55.3558C919.86 56.0391 919.237 56.7685 918.877 57.544L915.775 56.4361C916.329 55.1435 917.067 54.1371 917.991 53.4169C918.923 52.6875 919.939 52.1797 921.037 51.8935C922.145 51.598 923.235 51.4503 924.306 51.4503C924.989 51.4503 925.774 51.5334 926.66 51.6996C927.556 51.8565 928.419 52.1843 929.25 52.6829C930.09 53.1815 930.787 53.9339 931.341 54.9403C931.895 55.9467 932.172 57.2947 932.172 58.9844V73H928.904V70.1193H928.738C928.516 70.581 928.147 71.0749 927.63 71.6012C927.113 72.1275 926.425 72.5753 925.566 72.9446C924.707 73.3139 923.66 73.4986 922.422 73.4986ZM922.921 70.5625C924.214 70.5625 925.303 70.3086 926.189 69.8008C927.085 69.293 927.759 68.6374 928.211 67.8342C928.673 67.0309 928.904 66.1861 928.904 65.2997V62.3082C928.765 62.4744 928.461 62.6268 927.99 62.7653C927.528 62.8945 926.993 63.0099 926.383 63.1115C925.783 63.2038 925.197 63.2869 924.624 63.3608C924.061 63.4254 923.604 63.4808 923.253 63.527C922.404 63.6378 921.61 63.8178 920.871 64.0671C920.142 64.3072 919.551 64.6719 919.098 65.1612C918.655 65.6413 918.434 66.2969 918.434 67.1278C918.434 68.2635 918.854 69.1222 919.694 69.7038C920.543 70.2763 921.619 70.5625 922.921 70.5625ZM953.206 56.4915L950.27 57.3224C950.085 56.8331 949.813 56.3576 949.453 55.896C949.102 55.4251 948.622 55.0373 948.013 54.7326C947.403 54.4279 946.623 54.2756 945.672 54.2756C944.37 54.2756 943.285 54.5756 942.417 55.1758C941.559 55.7667 941.129 56.5192 941.129 57.4332C941.129 58.2457 941.425 58.8874 942.016 59.3583C942.607 59.8292 943.53 60.2216 944.786 60.5355L947.943 61.3111C949.845 61.7727 951.263 62.479 952.195 63.43C953.128 64.3718 953.594 65.5859 953.594 67.0724C953.594 68.2912 953.243 69.3807 952.541 70.3409C951.849 71.3011 950.879 72.0582 949.633 72.6122C948.387 73.1662 946.937 73.4432 945.284 73.4432C943.115 73.4432 941.319 72.9723 939.897 72.0305C938.475 71.0888 937.575 69.7131 937.196 67.9034L940.298 67.1278C940.594 68.2727 941.153 69.1314 941.974 69.7038C942.805 70.2763 943.89 70.5625 945.229 70.5625C946.752 70.5625 947.962 70.2393 948.857 69.593C949.762 68.9375 950.215 68.1527 950.215 67.2386C950.215 66.5 949.956 65.8814 949.439 65.3828C948.922 64.875 948.128 64.4964 947.057 64.2472L943.512 63.4162C941.563 62.9545 940.132 62.239 939.218 61.2695C938.313 60.2908 937.861 59.0675 937.861 57.5994C937.861 56.3991 938.198 55.3374 938.872 54.4141C939.555 53.4908 940.483 52.766 941.656 52.2397C942.838 51.7134 944.176 51.4503 945.672 51.4503C947.777 51.4503 949.43 51.9119 950.63 52.8352C951.84 53.7585 952.698 54.9773 953.206 56.4915ZM975.743 73.4986C974.395 73.4986 973.171 73.2447 972.073 72.7369C970.974 72.2198 970.101 71.4766 969.455 70.5071C968.809 69.5284 968.486 68.3466 968.486 66.9616C968.486 65.7429 968.726 64.755 969.206 63.9979C969.686 63.2315 970.328 62.6314 971.131 62.1974C971.934 61.7635 972.82 61.4403 973.79 61.228C974.769 61.0064 975.752 60.831 976.74 60.7017C978.032 60.5355 979.08 60.4109 979.884 60.3278C980.696 60.2354 981.287 60.0831 981.656 59.8707C982.035 59.6584 982.224 59.2891 982.224 58.7628V58.652C982.224 57.2855 981.85 56.2237 981.102 55.4666C980.364 54.7095 979.242 54.331 977.737 54.331C976.177 54.331 974.953 54.6726 974.067 55.3558C973.18 56.0391 972.557 56.7685 972.197 57.544L969.095 56.4361C969.649 55.1435 970.388 54.1371 971.311 53.4169C972.243 52.6875 973.259 52.1797 974.358 51.8935C975.466 51.598 976.555 51.4503 977.626 51.4503C978.309 51.4503 979.094 51.5334 979.981 51.6996C980.876 51.8565 981.739 52.1843 982.57 52.6829C983.411 53.1815 984.108 53.9339 984.662 54.9403C985.216 55.9467 985.493 57.2947 985.493 58.9844V73H982.224V70.1193H982.058C981.836 70.581 981.467 71.0749 980.95 71.6012C980.433 72.1275 979.745 72.5753 978.886 72.9446C978.028 73.3139 976.98 73.4986 975.743 73.4986ZM976.241 70.5625C977.534 70.5625 978.623 70.3086 979.51 69.8008C980.405 69.293 981.079 68.6374 981.532 67.8342C981.993 67.0309 982.224 66.1861 982.224 65.2997V62.3082C982.086 62.4744 981.781 62.6268 981.31 62.7653C980.848 62.8945 980.313 63.0099 979.704 63.1115C979.103 63.2038 978.517 63.2869 977.945 63.3608C977.381 63.4254 976.924 63.4808 976.574 63.527C975.724 63.6378 974.93 63.8178 974.191 64.0671C973.462 64.3072 972.871 64.6719 972.419 65.1612C971.976 65.6413 971.754 66.2969 971.754 67.1278C971.754 68.2635 972.174 69.1222 973.014 69.7038C973.864 70.2763 974.939 70.5625 976.241 70.5625ZM994.727 44.6364V73H991.458V44.6364H994.727ZM1006.97 73.4986C1005.63 73.4986 1004.4 73.2447 1003.3 72.7369C1002.2 72.2198 1001.33 71.4766 1000.69 70.5071C1000.04 69.5284 999.716 68.3466 999.716 66.9616C999.716 65.7429 999.956 64.755 1000.44 63.9979C1000.92 63.2315 1001.56 62.6314 1002.36 62.1974C1003.16 61.7635 1004.05 61.4403 1005.02 61.228C1006 61.0064 1006.98 60.831 1007.97 60.7017C1009.26 60.5355 1010.31 60.4109 1011.11 60.3278C1011.93 60.2354 1012.52 60.0831 1012.89 59.8707C1013.27 59.6584 1013.45 59.2891 1013.45 58.7628V58.652C1013.45 57.2855 1013.08 56.2237 1012.33 55.4666C1011.59 54.7095 1010.47 54.331 1008.97 54.331C1007.41 54.331 1006.18 54.6726 1005.3 55.3558C1004.41 56.0391 1003.79 56.7685 1003.43 57.544L1000.33 56.4361C1000.88 55.1435 1001.62 54.1371 1002.54 53.4169C1003.47 52.6875 1004.49 52.1797 1005.59 51.8935C1006.7 51.598 1007.79 51.4503 1008.86 51.4503C1009.54 51.4503 1010.32 51.5334 1011.21 51.6996C1012.11 51.8565 1012.97 52.1843 1013.8 52.6829C1014.64 53.1815 1015.34 53.9339 1015.89 54.9403C1016.45 55.9467 1016.72 57.2947 1016.72 58.9844V73H1013.45V70.1193H1013.29C1013.07 70.581 1012.7 71.0749 1012.18 71.6012C1011.66 72.1275 1010.98 72.5753 1010.12 72.9446C1009.26 73.3139 1008.21 73.4986 1006.97 73.4986ZM1007.47 70.5625C1008.76 70.5625 1009.85 70.3086 1010.74 69.8008C1011.64 69.293 1012.31 68.6374 1012.76 67.8342C1013.22 67.0309 1013.45 66.1861 1013.45 65.2997V62.3082C1013.32 62.4744 1013.01 62.6268 1012.54 62.7653C1012.08 62.8945 1011.54 63.0099 1010.93 63.1115C1010.33 63.2038 1009.75 63.2869 1009.18 63.3608C1008.61 63.4254 1008.15 63.4808 1007.8 63.527C1006.95 63.6378 1006.16 63.8178 1005.42 64.0671C1004.69 64.3072 1004.1 64.6719 1003.65 65.1612C1003.21 65.6413 1002.98 66.2969 1002.98 67.1278C1002.98 68.2635 1003.4 69.1222 1004.24 69.7038C1005.09 70.2763 1006.17 70.5625 1007.47 70.5625ZM1022.69 73V51.7273H1025.85V55.0511H1026.12C1026.57 53.9155 1027.28 53.0337 1028.27 52.4059C1029.26 51.7688 1030.44 51.4503 1031.83 51.4503C1033.23 51.4503 1034.4 51.7688 1035.33 52.4059C1036.28 53.0337 1037.01 53.9155 1037.54 55.0511H1037.76C1038.3 53.9524 1039.12 53.0799 1040.21 52.4336C1041.3 51.7781 1042.6 51.4503 1044.13 51.4503C1046.03 51.4503 1047.59 52.0458 1048.79 53.2369C1050 54.4187 1050.61 56.2607 1050.61 58.7628V73H1047.34V58.7628C1047.34 57.1932 1046.91 56.0714 1046.05 55.3974C1045.19 54.7234 1044.18 54.3864 1043.02 54.3864C1041.52 54.3864 1040.37 54.8388 1039.54 55.7436C1038.72 56.6392 1038.31 57.7749 1038.31 59.1506V73H1034.99V58.4304C1034.99 57.2209 1034.59 56.2468 1033.81 55.5082C1033.03 54.7603 1032.01 54.3864 1030.78 54.3864C1029.93 54.3864 1029.13 54.6126 1028.39 55.065C1027.67 55.5174 1027.07 56.1452 1026.62 56.9485C1026.18 57.7425 1025.96 58.6612 1025.96 59.7045V73H1022.69ZM1065.5 73.4432C1063.45 73.4432 1061.69 72.9908 1060.2 72.0859C1058.72 71.1719 1057.58 69.8977 1056.78 68.2635C1055.99 66.62 1055.59 64.7088 1055.59 62.5298C1055.59 60.3509 1055.99 58.4304 1056.78 56.7685C1057.58 55.0973 1058.7 53.7955 1060.13 52.8629C1061.57 51.9212 1063.25 51.4503 1065.17 51.4503C1066.28 51.4503 1067.37 51.6349 1068.45 52.0043C1069.53 52.3736 1070.52 52.9737 1071.4 53.8047C1072.29 54.6264 1073 55.7159 1073.52 57.0732C1074.05 58.4304 1074.31 60.1016 1074.31 62.0866V63.4716H1057.91V60.6463H1070.99C1070.99 59.446 1070.75 58.375 1070.27 57.4332C1069.8 56.4915 1069.12 55.7482 1068.25 55.2035C1067.38 54.6587 1066.35 54.3864 1065.17 54.3864C1063.87 54.3864 1062.74 54.7095 1061.79 55.3558C1060.85 55.9929 1060.13 56.8239 1059.62 57.8487C1059.11 58.8736 1058.86 59.9723 1058.86 61.1449V63.0284C1058.86 64.6349 1059.13 65.9968 1059.69 67.114C1060.25 68.2219 1061.03 69.0668 1062.03 69.6484C1063.03 70.2209 1064.18 70.5071 1065.5 70.5071C1066.36 70.5071 1067.14 70.3871 1067.83 70.147C1068.53 69.8977 1069.14 69.5284 1069.65 69.0391C1070.15 68.5405 1070.55 67.9219 1070.82 67.1832L1073.98 68.0696C1073.65 69.1406 1073.09 70.0824 1072.3 70.8949C1071.52 71.6982 1070.55 72.326 1069.4 72.7784C1068.24 73.2216 1066.94 73.4432 1065.5 73.4432ZM1087.32 73.4432C1085.54 73.4432 1083.98 72.9954 1082.62 72.0998C1081.26 71.195 1080.2 69.9208 1079.44 68.2773C1078.67 66.6246 1078.29 64.6719 1078.29 62.419C1078.29 60.1847 1078.67 58.2457 1079.44 56.6023C1080.2 54.9588 1081.27 53.6893 1082.64 52.7937C1084 51.8981 1085.58 51.4503 1087.37 51.4503C1088.76 51.4503 1089.85 51.6811 1090.65 52.1428C1091.47 52.5952 1092.09 53.1122 1092.51 53.6939C1092.94 54.2663 1093.28 54.7372 1093.52 55.1065H1093.8V44.6364H1097.07V73H1093.91V69.7315H1093.52C1093.28 70.1193 1092.94 70.6087 1092.5 71.1996C1092.05 71.7812 1091.42 72.3029 1090.6 72.7646C1089.78 73.217 1088.68 73.4432 1087.32 73.4432ZM1087.76 70.5071C1089.07 70.5071 1090.18 70.1655 1091.08 69.4822C1091.99 68.7898 1092.68 67.8342 1093.15 66.6154C1093.62 65.3874 1093.85 63.9702 1093.85 62.3636C1093.85 60.7756 1093.62 59.386 1093.16 58.195C1092.7 56.9947 1092.02 56.0621 1091.11 55.3974C1090.21 54.7234 1089.09 54.3864 1087.76 54.3864C1086.38 54.3864 1085.22 54.7418 1084.3 55.4528C1083.38 56.1545 1082.7 57.1101 1082.23 58.3196C1081.78 59.5199 1081.56 60.8679 1081.56 62.3636C1081.56 63.8778 1081.79 65.2536 1082.25 66.4908C1082.72 67.7187 1083.41 68.6974 1084.33 69.4268C1085.25 70.147 1086.39 70.5071 1087.76 70.5071ZM1109.77 73.4986C1108.42 73.4986 1107.2 73.2447 1106.1 72.7369C1105 72.2198 1104.13 71.4766 1103.48 70.5071C1102.83 69.5284 1102.51 68.3466 1102.51 66.9616C1102.51 65.7429 1102.75 64.755 1103.23 63.9979C1103.71 63.2315 1104.35 62.6314 1105.16 62.1974C1105.96 61.7635 1106.84 61.4403 1107.81 61.228C1108.79 61.0064 1109.78 60.831 1110.76 60.7017C1112.06 60.5355 1113.1 60.4109 1113.91 60.3278C1114.72 60.2354 1115.31 60.0831 1115.68 59.8707C1116.06 59.6584 1116.25 59.2891 1116.25 58.7628V58.652C1116.25 57.2855 1115.87 56.2237 1115.13 55.4666C1114.39 54.7095 1113.27 54.331 1111.76 54.331C1110.2 54.331 1108.98 54.6726 1108.09 55.3558C1107.2 56.0391 1106.58 56.7685 1106.22 57.544L1103.12 56.4361C1103.67 55.1435 1104.41 54.1371 1105.34 53.4169C1106.27 52.6875 1107.28 52.1797 1108.38 51.8935C1109.49 51.598 1110.58 51.4503 1111.65 51.4503C1112.33 51.4503 1113.12 51.5334 1114 51.6996C1114.9 51.8565 1115.76 52.1843 1116.59 52.6829C1117.44 53.1815 1118.13 53.9339 1118.69 54.9403C1119.24 55.9467 1119.52 57.2947 1119.52 58.9844V73H1116.25V70.1193H1116.08C1115.86 70.581 1115.49 71.0749 1114.97 71.6012C1114.46 72.1275 1113.77 72.5753 1112.91 72.9446C1112.05 73.3139 1111 73.4986 1109.77 73.4986ZM1110.27 70.5625C1111.56 70.5625 1112.65 70.3086 1113.53 69.8008C1114.43 69.293 1115.1 68.6374 1115.56 67.8342C1116.02 67.0309 1116.25 66.1861 1116.25 65.2997V62.3082C1116.11 62.4744 1115.81 62.6268 1115.33 62.7653C1114.87 62.8945 1114.34 63.0099 1113.73 63.1115C1113.13 63.2038 1112.54 63.2869 1111.97 63.3608C1111.41 63.4254 1110.95 63.4808 1110.6 63.527C1109.75 63.6378 1108.95 63.8178 1108.22 64.0671C1107.49 64.3072 1106.9 64.6719 1106.44 65.1612C1106 65.6413 1105.78 66.2969 1105.78 67.1278C1105.78 68.2635 1106.2 69.1222 1107.04 69.7038C1107.89 70.2763 1108.96 70.5625 1110.27 70.5625ZM1140.55 56.4915L1137.61 57.3224C1137.43 56.8331 1137.16 56.3576 1136.8 55.896C1136.45 55.4251 1135.97 55.0373 1135.36 54.7326C1134.75 54.4279 1133.97 54.2756 1133.02 54.2756C1131.71 54.2756 1130.63 54.5756 1129.76 55.1758C1128.9 55.7667 1128.47 56.5192 1128.47 57.4332C1128.47 58.2457 1128.77 58.8874 1129.36 59.3583C1129.95 59.8292 1130.87 60.2216 1132.13 60.5355L1135.29 61.3111C1137.19 61.7727 1138.61 62.479 1139.54 63.43C1140.47 64.3718 1140.94 65.5859 1140.94 67.0724C1140.94 68.2912 1140.59 69.3807 1139.89 70.3409C1139.19 71.3011 1138.22 72.0582 1136.98 72.6122C1135.73 73.1662 1134.28 73.4432 1132.63 73.4432C1130.46 73.4432 1128.66 72.9723 1127.24 72.0305C1125.82 71.0888 1124.92 69.7131 1124.54 67.9034L1127.64 67.1278C1127.94 68.2727 1128.5 69.1314 1129.32 69.7038C1130.15 70.2763 1131.23 70.5625 1132.57 70.5625C1134.1 70.5625 1135.31 70.2393 1136.2 69.593C1137.11 68.9375 1137.56 68.1527 1137.56 67.2386C1137.56 66.5 1137.3 65.8814 1136.78 65.3828C1136.27 64.875 1135.47 64.4964 1134.4 64.2472L1130.86 63.4162C1128.91 62.9545 1127.48 62.239 1126.56 61.2695C1125.66 60.2908 1125.21 59.0675 1125.21 57.5994C1125.21 56.3991 1125.54 55.3374 1126.22 54.4141C1126.9 53.4908 1127.83 52.766 1129 52.2397C1130.18 51.7134 1131.52 51.4503 1133.02 51.4503C1135.12 51.4503 1136.77 51.9119 1137.97 52.8352C1139.18 53.7585 1140.04 54.9773 1140.55 56.4915ZM1150.73 69.1222L1150.51 70.6179C1150.36 71.6705 1150.12 72.7969 1149.79 73.9972C1149.48 75.1974 1149.15 76.3285 1148.81 77.3903C1148.47 78.4521 1148.19 79.2969 1147.96 79.9247H1145.47C1145.59 79.3338 1145.75 78.5536 1145.94 77.5842C1146.14 76.6147 1146.33 75.5298 1146.52 74.3295C1146.73 73.1385 1146.89 71.9197 1147.02 70.6733L1147.19 69.1222H1150.73ZM1167.04 67.1832V64.358L1179.5 44.6364H1181.55V49.0128H1180.17L1170.75 63.9148V64.1364H1187.54V67.1832H1167.04ZM1180.39 73V66.3246V65.0089V44.6364H1183.66V73H1180.39ZM1202.32 44.6364V73H1198.88V48.2372H1198.72L1191.79 52.8352V49.3452L1198.88 44.6364H1202.32ZM1210.47 73V70.5071L1219.84 60.2585C1220.93 59.0582 1221.84 58.0149 1222.55 57.1286C1223.26 56.233 1223.79 55.3928 1224.13 54.608C1224.48 53.8139 1224.66 52.983 1224.66 52.1151C1224.66 51.1179 1224.41 50.2546 1223.93 49.5252C1223.46 48.7958 1222.82 48.2326 1222 47.8356C1221.17 47.4386 1220.25 47.2401 1219.23 47.2401C1218.14 47.2401 1217.19 47.4663 1216.37 47.9187C1215.57 48.3619 1214.95 48.9851 1214.5 49.7884C1214.07 50.5916 1213.85 51.5334 1213.85 52.6136H1210.58C1210.58 50.9517 1210.97 49.4929 1211.73 48.2372C1212.5 46.9815 1213.54 46.0028 1214.86 45.3011C1216.19 44.5994 1217.68 44.2486 1219.34 44.2486C1221 44.2486 1222.47 44.5994 1223.75 45.3011C1225.04 46.0028 1226.04 46.9492 1226.77 48.1403C1227.5 49.3313 1227.87 50.6562 1227.87 52.1151C1227.87 53.1584 1227.68 54.1786 1227.3 55.1758C1226.93 56.1637 1226.28 57.267 1225.36 58.4858C1224.45 59.6953 1223.18 61.1726 1221.55 62.9176L1215.18 69.7315V69.9531H1228.37V73H1210.47ZM329.435 132V103.636H339.351C341.327 103.636 342.956 103.978 344.24 104.661C345.523 105.335 346.479 106.245 347.107 107.39C347.734 108.525 348.048 109.786 348.048 111.17C348.048 112.389 347.831 113.396 347.397 114.19C346.973 114.984 346.409 115.612 345.708 116.073C345.015 116.535 344.263 116.876 343.45 117.098V117.375C344.318 117.43 345.191 117.735 346.068 118.289C346.945 118.843 347.679 119.637 348.27 120.671C348.861 121.705 349.156 122.97 349.156 124.466C349.156 125.888 348.833 127.167 348.187 128.302C347.54 129.438 346.52 130.338 345.126 131.003C343.732 131.668 341.918 132 339.683 132H329.435ZM332.869 128.953H339.683C341.927 128.953 343.52 128.519 344.461 127.651C345.412 126.774 345.888 125.712 345.888 124.466C345.888 123.506 345.643 122.619 345.154 121.807C344.664 120.985 343.967 120.33 343.062 119.84C342.158 119.342 341.087 119.092 339.849 119.092H332.869V128.953ZM332.869 116.101H339.24C340.274 116.101 341.207 115.898 342.038 115.491C342.878 115.085 343.543 114.513 344.032 113.774C344.531 113.036 344.78 112.168 344.78 111.17C344.78 109.924 344.346 108.867 343.478 107.999C342.61 107.122 341.234 106.683 339.351 106.683H332.869V116.101ZM360.617 132.499C359.269 132.499 358.045 132.245 356.947 131.737C355.848 131.22 354.975 130.477 354.329 129.507C353.683 128.528 353.36 127.347 353.36 125.962C353.36 124.743 353.6 123.755 354.08 122.998C354.56 122.232 355.202 121.631 356.005 121.197C356.808 120.763 357.694 120.44 358.664 120.228C359.643 120.006 360.626 119.831 361.614 119.702C362.906 119.536 363.954 119.411 364.758 119.328C365.57 119.235 366.161 119.083 366.53 118.871C366.909 118.658 367.098 118.289 367.098 117.763V117.652C367.098 116.286 366.724 115.224 365.976 114.467C365.238 113.71 364.116 113.331 362.611 113.331C361.051 113.331 359.827 113.673 358.941 114.356C358.055 115.039 357.431 115.768 357.071 116.544L353.969 115.436C354.523 114.143 355.262 113.137 356.185 112.417C357.117 111.687 358.133 111.18 359.232 110.893C360.34 110.598 361.429 110.45 362.5 110.45C363.183 110.45 363.968 110.533 364.855 110.7C365.75 110.857 366.613 111.184 367.444 111.683C368.285 112.181 368.982 112.934 369.536 113.94C370.09 114.947 370.367 116.295 370.367 117.984V132H367.098V129.119H366.932C366.71 129.581 366.341 130.075 365.824 130.601C365.307 131.127 364.619 131.575 363.76 131.945C362.902 132.314 361.854 132.499 360.617 132.499ZM361.115 129.562C362.408 129.562 363.497 129.309 364.384 128.801C365.279 128.293 365.953 127.637 366.406 126.834C366.867 126.031 367.098 125.186 367.098 124.3V121.308C366.96 121.474 366.655 121.627 366.184 121.765C365.722 121.895 365.187 122.01 364.578 122.112C363.977 122.204 363.391 122.287 362.819 122.361C362.256 122.425 361.798 122.481 361.448 122.527C360.598 122.638 359.804 122.818 359.066 123.067C358.336 123.307 357.745 123.672 357.293 124.161C356.85 124.641 356.628 125.297 356.628 126.128C356.628 127.263 357.048 128.122 357.888 128.704C358.738 129.276 359.813 129.562 361.115 129.562ZM376.332 132V110.727H379.601V132H376.332ZM377.994 107.182C377.357 107.182 376.808 106.965 376.346 106.531C375.894 106.097 375.668 105.575 375.668 104.966C375.668 104.357 375.894 103.835 376.346 103.401C376.808 102.967 377.357 102.75 377.994 102.75C378.631 102.75 379.176 102.967 379.628 103.401C380.09 103.835 380.321 104.357 380.321 104.966C380.321 105.575 380.09 106.097 379.628 106.531C379.176 106.965 378.631 107.182 377.994 107.182ZM385.587 132V110.727H388.745V113.94H388.966C389.354 112.888 390.056 112.034 391.072 111.378C392.087 110.723 393.232 110.395 394.506 110.395C394.746 110.395 395.046 110.4 395.406 110.409C395.767 110.418 396.039 110.432 396.224 110.45V113.774C396.113 113.746 395.859 113.705 395.462 113.65C395.074 113.585 394.663 113.553 394.229 113.553C393.195 113.553 392.272 113.77 391.459 114.203C390.656 114.628 390.019 115.219 389.548 115.976C389.086 116.724 388.856 117.578 388.856 118.538V132H385.587ZM400.098 132V110.727H403.256V113.94H403.477C403.865 112.888 404.567 112.034 405.582 111.378C406.598 110.723 407.743 110.395 409.017 110.395C409.257 110.395 409.557 110.4 409.917 110.409C410.277 110.418 410.55 110.432 410.734 110.45V113.774C410.623 113.746 410.37 113.705 409.973 113.65C409.585 113.585 409.174 113.553 408.74 113.553C407.706 113.553 406.783 113.77 405.97 114.203C405.167 114.628 404.53 115.219 404.059 115.976C403.597 116.724 403.366 117.578 403.366 118.538V132H400.098ZM422.603 132.443C420.683 132.443 418.998 131.986 417.548 131.072C416.108 130.158 414.981 128.879 414.169 127.236C413.366 125.592 412.964 123.672 412.964 121.474C412.964 119.259 413.366 117.324 414.169 115.672C414.981 114.019 416.108 112.735 417.548 111.821C418.998 110.907 420.683 110.45 422.603 110.45C424.524 110.45 426.204 110.907 427.644 111.821C429.094 112.735 430.22 114.019 431.024 115.672C431.836 117.324 432.242 119.259 432.242 121.474C432.242 123.672 431.836 125.592 431.024 127.236C430.22 128.879 429.094 130.158 427.644 131.072C426.204 131.986 424.524 132.443 422.603 132.443ZM422.603 129.507C424.062 129.507 425.262 129.133 426.204 128.385C427.146 127.637 427.843 126.654 428.295 125.435C428.748 124.217 428.974 122.896 428.974 121.474C428.974 120.053 428.748 118.728 428.295 117.5C427.843 116.272 427.146 115.279 426.204 114.522C425.262 113.765 424.062 113.386 422.603 113.386C421.144 113.386 419.944 113.765 419.002 114.522C418.061 115.279 417.364 116.272 416.911 117.5C416.459 118.728 416.233 120.053 416.233 121.474C416.233 122.896 416.459 124.217 416.911 125.435C417.364 126.654 418.061 127.637 419.002 128.385C419.944 129.133 421.144 129.507 422.603 129.507ZM448.644 132V103.636H458.227C460.453 103.636 462.271 104.038 463.684 104.841C465.106 105.635 466.159 106.711 466.842 108.068C467.525 109.425 467.867 110.94 467.867 112.611C467.867 114.282 467.525 115.801 466.842 117.167C466.168 118.534 465.124 119.623 463.712 120.436C462.299 121.239 460.49 121.641 458.283 121.641H451.414V118.594H458.172C459.695 118.594 460.919 118.331 461.842 117.804C462.765 117.278 463.435 116.567 463.85 115.672C464.275 114.767 464.487 113.746 464.487 112.611C464.487 111.475 464.275 110.46 463.85 109.564C463.435 108.668 462.761 107.967 461.828 107.459C460.896 106.942 459.659 106.683 458.117 106.683H452.078V132H448.644ZM481.37 132.443C479.449 132.443 477.764 131.986 476.315 131.072C474.874 130.158 473.748 128.879 472.936 127.236C472.132 125.592 471.731 123.672 471.731 121.474C471.731 119.259 472.132 117.324 472.936 115.672C473.748 114.019 474.874 112.735 476.315 111.821C477.764 110.907 479.449 110.45 481.37 110.45C483.29 110.45 484.971 110.907 486.411 111.821C487.861 112.735 488.987 114.019 489.79 115.672C490.603 117.324 491.009 119.259 491.009 121.474C491.009 123.672 490.603 125.592 489.79 127.236C488.987 128.879 487.861 130.158 486.411 131.072C484.971 131.986 483.29 132.443 481.37 132.443ZM481.37 129.507C482.829 129.507 484.029 129.133 484.971 128.385C485.912 127.637 486.61 126.654 487.062 125.435C487.514 124.217 487.741 122.896 487.741 121.474C487.741 120.053 487.514 118.728 487.062 117.5C486.61 116.272 485.912 115.279 484.971 114.522C484.029 113.765 482.829 113.386 481.37 113.386C479.911 113.386 478.711 113.765 477.769 114.522C476.827 115.279 476.13 116.272 475.678 117.5C475.225 118.728 474.999 120.053 474.999 121.474C474.999 122.896 475.225 124.217 475.678 125.435C476.13 126.654 476.827 127.637 477.769 128.385C478.711 129.133 479.911 129.507 481.37 129.507ZM495.998 132V110.727H499.156V113.94H499.378C499.765 112.888 500.467 112.034 501.483 111.378C502.498 110.723 503.643 110.395 504.917 110.395C505.157 110.395 505.457 110.4 505.818 110.409C506.178 110.418 506.45 110.432 506.635 110.45V113.774C506.524 113.746 506.27 113.705 505.873 113.65C505.485 113.585 505.074 113.553 504.64 113.553C503.606 113.553 502.683 113.77 501.87 114.203C501.067 114.628 500.43 115.219 499.959 115.976C499.498 116.724 499.267 117.578 499.267 118.538V132H495.998ZM521.093 110.727V113.497H510.069V110.727H521.093ZM513.282 105.631H516.551V125.906C516.551 126.83 516.685 127.522 516.953 127.984C517.229 128.436 517.58 128.741 518.005 128.898C518.439 129.045 518.896 129.119 519.376 129.119C519.736 129.119 520.032 129.101 520.263 129.064C520.493 129.018 520.678 128.981 520.816 128.953L521.481 131.889C521.26 131.972 520.95 132.055 520.553 132.138C520.156 132.231 519.653 132.277 519.044 132.277C518.12 132.277 517.216 132.078 516.329 131.681C515.452 131.284 514.723 130.68 514.141 129.867C513.569 129.055 513.282 128.03 513.282 126.793V105.631ZM532.27 132.499C530.922 132.499 529.699 132.245 528.6 131.737C527.501 131.22 526.629 130.477 525.982 129.507C525.336 128.528 525.013 127.347 525.013 125.962C525.013 124.743 525.253 123.755 525.733 122.998C526.213 122.232 526.855 121.631 527.658 121.197C528.461 120.763 529.348 120.44 530.317 120.228C531.296 120.006 532.279 119.831 533.267 119.702C534.56 119.536 535.608 119.411 536.411 119.328C537.223 119.235 537.814 119.083 538.184 118.871C538.562 118.658 538.752 118.289 538.752 117.763V117.652C538.752 116.286 538.378 115.224 537.63 114.467C536.891 113.71 535.769 113.331 534.264 113.331C532.704 113.331 531.481 113.673 530.594 114.356C529.708 115.039 529.085 115.768 528.725 116.544L525.622 115.436C526.176 114.143 526.915 113.137 527.838 112.417C528.771 111.687 529.786 111.18 530.885 110.893C531.993 110.598 533.082 110.45 534.153 110.45C534.837 110.45 535.622 110.533 536.508 110.7C537.403 110.857 538.267 111.184 539.098 111.683C539.938 112.181 540.635 112.934 541.189 113.94C541.743 114.947 542.02 116.295 542.02 117.984V132H538.752V129.119H538.585C538.364 129.581 537.994 130.075 537.477 130.601C536.96 131.127 536.272 131.575 535.414 131.945C534.555 132.314 533.507 132.499 532.27 132.499ZM532.769 129.562C534.061 129.562 535.151 129.309 536.037 128.801C536.933 128.293 537.607 127.637 538.059 126.834C538.521 126.031 538.752 125.186 538.752 124.3V121.308C538.613 121.474 538.308 121.627 537.837 121.765C537.376 121.895 536.84 122.01 536.231 122.112C535.631 122.204 535.044 122.287 534.472 122.361C533.909 122.425 533.452 122.481 533.101 122.527C532.252 122.638 531.457 122.818 530.719 123.067C529.989 123.307 529.399 123.672 528.946 124.161C528.503 124.641 528.281 125.297 528.281 126.128C528.281 127.263 528.701 128.122 529.542 128.704C530.391 129.276 531.467 129.562 532.769 129.562ZM551.254 103.636V132H547.986V103.636H551.254ZM576.242 132.443C574.469 132.443 572.904 131.995 571.547 131.1C570.19 130.195 569.128 128.921 568.362 127.277C567.595 125.625 567.212 123.672 567.212 121.419C567.212 119.185 567.595 117.246 568.362 115.602C569.128 113.959 570.194 112.689 571.561 111.794C572.927 110.898 574.506 110.45 576.297 110.45C577.682 110.45 578.776 110.681 579.58 111.143C580.392 111.595 581.011 112.112 581.435 112.694C581.869 113.266 582.206 113.737 582.446 114.107H582.723V103.636H585.992V132H582.834V128.732H582.446C582.206 129.119 581.865 129.609 581.422 130.2C580.978 130.781 580.346 131.303 579.524 131.765C578.703 132.217 577.608 132.443 576.242 132.443ZM576.685 129.507C577.996 129.507 579.104 129.165 580.009 128.482C580.914 127.79 581.602 126.834 582.073 125.615C582.543 124.387 582.779 122.97 582.779 121.364C582.779 119.776 582.548 118.386 582.086 117.195C581.625 115.995 580.941 115.062 580.037 114.397C579.132 113.723 578.015 113.386 576.685 113.386C575.3 113.386 574.146 113.742 573.223 114.453C572.309 115.154 571.621 116.11 571.159 117.32C570.707 118.52 570.481 119.868 570.481 121.364C570.481 122.878 570.711 124.254 571.173 125.491C571.644 126.719 572.336 127.697 573.25 128.427C574.174 129.147 575.319 129.507 576.685 129.507ZM598.692 132.499C597.344 132.499 596.12 132.245 595.022 131.737C593.923 131.22 593.051 130.477 592.404 129.507C591.758 128.528 591.435 127.347 591.435 125.962C591.435 124.743 591.675 123.755 592.155 122.998C592.635 122.232 593.277 121.631 594.08 121.197C594.883 120.763 595.77 120.44 596.739 120.228C597.718 120.006 598.701 119.831 599.689 119.702C600.982 119.536 602.03 119.411 602.833 119.328C603.645 119.235 604.236 119.083 604.606 118.871C604.984 118.658 605.173 118.289 605.173 117.763V117.652C605.173 116.286 604.799 115.224 604.052 114.467C603.313 113.71 602.191 113.331 600.686 113.331C599.126 113.331 597.902 113.673 597.016 114.356C596.13 115.039 595.506 115.768 595.146 116.544L592.044 115.436C592.598 114.143 593.337 113.137 594.26 112.417C595.193 111.687 596.208 111.18 597.307 110.893C598.415 110.598 599.504 110.45 600.575 110.45C601.259 110.45 602.043 110.533 602.93 110.7C603.825 110.857 604.689 111.184 605.52 111.683C606.36 112.181 607.057 112.934 607.611 113.94C608.165 114.947 608.442 116.295 608.442 117.984V132H605.173V129.119H605.007C604.786 129.581 604.416 130.075 603.899 130.601C603.382 131.127 602.694 131.575 601.836 131.945C600.977 132.314 599.929 132.499 598.692 132.499ZM599.19 129.562C600.483 129.562 601.573 129.309 602.459 128.801C603.354 128.293 604.028 127.637 604.481 126.834C604.943 126.031 605.173 125.186 605.173 124.3V121.308C605.035 121.474 604.73 121.627 604.259 121.765C603.798 121.895 603.262 122.01 602.653 122.112C602.053 122.204 601.466 122.287 600.894 122.361C600.331 122.425 599.874 122.481 599.523 122.527C598.673 122.638 597.879 122.818 597.141 123.067C596.411 123.307 595.82 123.672 595.368 124.161C594.925 124.641 594.703 125.297 594.703 126.128C594.703 127.263 595.123 128.122 595.964 128.704C596.813 129.276 597.889 129.562 599.19 129.562ZM629.476 115.491L626.54 116.322C626.355 115.833 626.083 115.358 625.722 114.896C625.372 114.425 624.892 114.037 624.282 113.733C623.673 113.428 622.893 113.276 621.942 113.276C620.64 113.276 619.555 113.576 618.687 114.176C617.828 114.767 617.399 115.519 617.399 116.433C617.399 117.246 617.694 117.887 618.285 118.358C618.876 118.829 619.8 119.222 621.055 119.536L624.213 120.311C626.115 120.773 627.532 121.479 628.465 122.43C629.397 123.372 629.863 124.586 629.863 126.072C629.863 127.291 629.513 128.381 628.811 129.341C628.118 130.301 627.149 131.058 625.903 131.612C624.656 132.166 623.206 132.443 621.554 132.443C619.384 132.443 617.588 131.972 616.166 131.031C614.744 130.089 613.844 128.713 613.466 126.903L616.568 126.128C616.863 127.273 617.422 128.131 618.244 128.704C619.075 129.276 620.16 129.562 621.498 129.562C623.022 129.562 624.231 129.239 625.127 128.593C626.032 127.937 626.484 127.153 626.484 126.239C626.484 125.5 626.226 124.881 625.709 124.383C625.192 123.875 624.398 123.496 623.327 123.247L619.781 122.416C617.833 121.955 616.402 121.239 615.488 120.27C614.583 119.291 614.131 118.067 614.131 116.599C614.131 115.399 614.468 114.337 615.142 113.414C615.825 112.491 616.753 111.766 617.925 111.24C619.107 110.713 620.446 110.45 621.942 110.45C624.047 110.45 625.699 110.912 626.9 111.835C628.109 112.759 628.968 113.977 629.476 115.491ZM655.225 110.727V113.497H643.758V110.727H655.225ZM647.193 132V107.791C647.193 106.572 647.479 105.557 648.051 104.744C648.624 103.932 649.367 103.322 650.281 102.916C651.195 102.51 652.16 102.307 653.176 102.307C653.979 102.307 654.634 102.371 655.142 102.501C655.65 102.63 656.028 102.75 656.278 102.861L655.336 105.686C655.17 105.631 654.939 105.561 654.644 105.478C654.357 105.395 653.979 105.354 653.508 105.354C652.428 105.354 651.647 105.626 651.167 106.171C650.696 106.716 650.461 107.514 650.461 108.567V132H647.193ZM663.074 103.636V132H659.806V103.636H663.074ZM677.703 132.443C675.782 132.443 674.097 131.986 672.648 131.072C671.207 130.158 670.081 128.879 669.269 127.236C668.465 125.592 668.064 123.672 668.064 121.474C668.064 119.259 668.465 117.324 669.269 115.672C670.081 114.019 671.207 112.735 672.648 111.821C674.097 110.907 675.782 110.45 677.703 110.45C679.623 110.45 681.304 110.907 682.744 111.821C684.194 112.735 685.32 114.019 686.123 115.672C686.936 117.324 687.342 119.259 687.342 121.474C687.342 123.672 686.936 125.592 686.123 127.236C685.32 128.879 684.194 130.158 682.744 131.072C681.304 131.986 679.623 132.443 677.703 132.443ZM677.703 129.507C679.162 129.507 680.362 129.133 681.304 128.385C682.245 127.637 682.943 126.654 683.395 125.435C683.847 124.217 684.074 122.896 684.074 121.474C684.074 120.053 683.847 118.728 683.395 117.5C682.943 116.272 682.245 115.279 681.304 114.522C680.362 113.765 679.162 113.386 677.703 113.386C676.244 113.386 675.044 113.765 674.102 114.522C673.16 115.279 672.463 116.272 672.011 117.5C671.558 118.728 671.332 120.053 671.332 121.474C671.332 122.896 671.558 124.217 672.011 125.435C672.463 126.654 673.16 127.637 674.102 128.385C675.044 129.133 676.244 129.507 677.703 129.507ZM692.331 132V110.727H695.489V113.94H695.711C696.098 112.888 696.8 112.034 697.816 111.378C698.831 110.723 699.976 110.395 701.25 110.395C701.49 110.395 701.79 110.4 702.151 110.409C702.511 110.418 702.783 110.432 702.968 110.45V113.774C702.857 113.746 702.603 113.705 702.206 113.65C701.818 113.585 701.407 113.553 700.973 113.553C699.939 113.553 699.016 113.77 698.203 114.203C697.4 114.628 696.763 115.219 696.292 115.976C695.831 116.724 695.6 117.578 695.6 118.538V132H692.331ZM715.114 132.443C713.064 132.443 711.296 131.991 709.809 131.086C708.332 130.172 707.192 128.898 706.388 127.263C705.594 125.62 705.197 123.709 705.197 121.53C705.197 119.351 705.594 117.43 706.388 115.768C707.192 114.097 708.309 112.795 709.74 111.863C711.18 110.921 712.861 110.45 714.781 110.45C715.889 110.45 716.983 110.635 718.064 111.004C719.144 111.374 720.127 111.974 721.013 112.805C721.9 113.626 722.606 114.716 723.132 116.073C723.659 117.43 723.922 119.102 723.922 121.087V122.472H707.524V119.646H720.598C720.598 118.446 720.358 117.375 719.878 116.433C719.407 115.491 718.733 114.748 717.856 114.203C716.988 113.659 715.963 113.386 714.781 113.386C713.479 113.386 712.353 113.71 711.402 114.356C710.46 114.993 709.735 115.824 709.228 116.849C708.72 117.874 708.466 118.972 708.466 120.145V122.028C708.466 123.635 708.743 124.997 709.297 126.114C709.86 127.222 710.64 128.067 711.637 128.648C712.635 129.221 713.793 129.507 715.114 129.507C715.972 129.507 716.748 129.387 717.44 129.147C718.142 128.898 718.747 128.528 719.255 128.039C719.762 127.54 720.155 126.922 720.432 126.183L723.589 127.07C723.257 128.141 722.699 129.082 721.914 129.895C721.129 130.698 720.159 131.326 719.005 131.778C717.851 132.222 716.554 132.443 715.114 132.443ZM743.962 115.491L741.026 116.322C740.841 115.833 740.569 115.358 740.209 114.896C739.858 114.425 739.378 114.037 738.768 113.733C738.159 113.428 737.379 113.276 736.428 113.276C735.126 113.276 734.041 113.576 733.173 114.176C732.315 114.767 731.885 115.519 731.885 116.433C731.885 117.246 732.181 117.887 732.772 118.358C733.363 118.829 734.286 119.222 735.542 119.536L738.699 120.311C740.601 120.773 742.018 121.479 742.951 122.43C743.884 123.372 744.35 124.586 744.35 126.072C744.35 127.291 743.999 128.381 743.297 129.341C742.605 130.301 741.635 131.058 740.389 131.612C739.142 132.166 737.693 132.443 736.04 132.443C733.87 132.443 732.075 131.972 730.653 131.031C729.231 130.089 728.331 128.713 727.952 126.903L731.054 126.128C731.35 127.273 731.908 128.131 732.73 128.704C733.561 129.276 734.646 129.562 735.985 129.562C737.508 129.562 738.718 129.239 739.613 128.593C740.518 127.937 740.971 127.153 740.971 126.239C740.971 125.5 740.712 124.881 740.195 124.383C739.678 123.875 738.884 123.496 737.813 123.247L734.267 122.416C732.319 121.955 730.888 121.239 729.974 120.27C729.069 119.291 728.617 118.067 728.617 116.599C728.617 115.399 728.954 114.337 729.628 113.414C730.311 112.491 731.239 111.766 732.412 111.24C733.593 110.713 734.932 110.45 736.428 110.45C738.533 110.45 740.186 110.912 741.386 111.835C742.596 112.759 743.454 113.977 743.962 115.491Z" fill="white"/>
</g>
<path d="M42 86.75C40.3424 86.75 38.7527 86.0915 37.5806 84.9194C36.4085 83.7473 35.75 82.1576 35.75 80.5C35.75 78.8424 36.4085 77.2527 37.5806 76.0806C38.7527 74.9085 40.3424 74.25 42 74.25C43.6576 74.25 45.2473 74.9085 46.4194 76.0806C47.5915 77.2527 48.25 78.8424 48.25 80.5C48.25 81.3208 48.0883 82.1335 47.7742 82.8918C47.4602 83.6501 46.9998 84.3391 46.4194 84.9194C45.8391 85.4998 45.1501 85.9602 44.3918 86.2742C43.6335 86.5883 42.8208 86.75 42 86.75ZM42 63C37.3587 63 32.9075 64.8437 29.6256 68.1256C26.3437 71.4075 24.5 75.8587 24.5 80.5C24.5 93.625 42 113 42 113C42 113 59.5 93.625 59.5 80.5C59.5 75.8587 57.6563 71.4075 54.3744 68.1256C51.0925 64.8437 46.6413 63 42 63Z" fill="white"/>
<defs>
<filter id="filter0_d_368_130" x="0" y="0" width="1528" height="193" filterUnits="userSpaceOnUse" color-interpolation-filters="sRGB">
<feFlood flood-opacity="0" result="BackgroundImageFix"/>
<feColorMatrix in="SourceAlpha" type="matrix" values="0 0 0 0 0 0 0 0 0 0 0 0 0 0 0 0 0 0 127 0" result="hardAlpha"/>
<feOffset dy="8"/>
<feGaussianBlur stdDeviation="8"/>
<feComposite in2="hardAlpha" operator="out"/>
<feColorMatrix type="matrix" values="0 0 0 0 0.776471 0 0 0 0 0.262745 0 0 0 0 0.0313726 0 0 0 0.5 0"/>
<feBlend mode="normal" in2="BackgroundImageFix" result="effect1_dropShadow_368_130"/>
<feBlend mode="normal" in="SourceGraphic" in2="effect1_dropShadow_368_130" result="shape"/>
</filter>
<filter id="filter1_d_368_130" x="82.4651" y="73.6362" width="195.989" height="45.3384" filterUnits="userSpaceOnUse" color-interpolation-filters="sRGB">
<feFlood flood-opacity="0" result="BackgroundImageFix"/>
<feColorMatrix in="SourceAlpha" type="matrix" values="0 0 0 0 0 0 0 0 0 0 0 0 0 0 0 0 0 0 127 0" result="hardAlpha"/>
<feOffset dy="4"/>
<feGaussianBlur stdDeviation="2"/>
<feComposite in2="hardAlpha" operator="out"/>
<feColorMatrix type="matrix" values="0 0 0 0 0 0 0 0 0 0 0 0 0 0 0 0 0 0 0.25 0"/>
<feBlend mode="normal" in2="BackgroundImageFix" result="effect1_dropShadow_368_130"/>
<feBlend mode="normal" in="SourceGraphic" in2="effect1_dropShadow_368_130" result="shape"/>
</filter>
<filter id="filter2_d_368_130" x="324.216" y="43.75" width="908.151" height="96.7485" filterUnits="userSpaceOnUse" color-interpolation-filters="sRGB">
<feFlood flood-opacity="0" result="BackgroundImageFix"/>
<feColorMatrix in="SourceAlpha" type="matrix" values="0 0 0 0 0 0 0 0 0 0 0 0 0 0 0 0 0 0 127 0" result="hardAlpha"/>
<feOffset dy="4"/>
<feGaussianBlur stdDeviation="2"/>
<feComposite in2="hardAlpha" operator="out"/>
<feColorMatrix type="matrix" values="0 0 0 0 0 0 0 0 0 0 0 0 0 0 0 0 0 0 0.25 0"/>
<feBlend mode="normal" in2="BackgroundImageFix" result="effect1_dropShadow_368_130"/>
<feBlend mode="normal" in="SourceGraphic" in2="effect1_dropShadow_368_130" result="shape"/>
</filter>
</defs>
</svg>
