<svg width="1479" height="181" viewBox="0 0 1479 181" fill="none" xmlns="http://www.w3.org/2000/svg">
<g filter="url(#filter0_d_368_136)">
<path d="M16.5669 8H1156L1462.57 157H196.279H16.5669V8Z" fill="#1491E3"/>
</g>
<g filter="url(#filter1_d_368_136)">
<path d="M117.49 78.5664H111.424C111.313 77.7816 111.087 77.0845 110.745 76.4751C110.404 75.8565 109.965 75.3303 109.43 74.8963C108.894 74.4624 108.276 74.13 107.574 73.8991C106.881 73.6683 106.129 73.5529 105.316 73.5529C103.848 73.5529 102.57 73.9176 101.48 74.647C100.391 75.3672 99.5459 76.4197 98.9458 77.8047C98.3456 79.1804 98.0455 80.8516 98.0455 82.8182C98.0455 84.8402 98.3456 86.5391 98.9458 87.9148C99.5551 89.2905 100.405 90.3292 101.494 91.0309C102.584 91.7326 103.844 92.0835 105.275 92.0835C106.078 92.0835 106.821 91.9773 107.505 91.7649C108.197 91.5526 108.811 91.2433 109.347 90.837C109.882 90.4215 110.325 89.9183 110.676 89.3274C111.036 88.7365 111.286 88.0625 111.424 87.3054L117.49 87.3331C117.333 88.6349 116.941 89.8906 116.313 91.1001C115.694 92.3004 114.859 93.3761 113.806 94.3271C112.763 95.2688 111.516 96.0167 110.067 96.5707C108.627 97.1154 106.997 97.3878 105.178 97.3878C102.648 97.3878 100.386 96.8153 98.3918 95.6705C96.4067 94.5256 94.8371 92.8683 93.683 90.6985C92.5381 88.5288 91.9656 85.902 91.9656 82.8182C91.9656 79.7251 92.5473 77.0938 93.7107 74.924C94.874 72.7543 96.4529 71.1016 98.4472 69.9659C100.441 68.821 102.685 68.2486 105.178 68.2486C106.821 68.2486 108.345 68.4794 109.748 68.9411C111.161 69.4027 112.412 70.0767 113.502 70.9631C114.591 71.8402 115.477 72.9158 116.161 74.19C116.853 75.4641 117.296 76.9229 117.49 78.5664ZM131.291 97.4155C129.14 97.4155 127.279 96.9585 125.71 96.0444C124.149 95.1211 122.945 93.8377 122.095 92.1942C121.246 90.5415 120.821 88.6257 120.821 86.4467C120.821 84.2493 121.246 82.3288 122.095 80.6854C122.945 79.0327 124.149 77.7493 125.71 76.8352C127.279 75.9119 129.14 75.4503 131.291 75.4503C133.442 75.4503 135.298 75.9119 136.859 76.8352C138.428 77.7493 139.638 79.0327 140.487 80.6854C141.337 82.3288 141.761 84.2493 141.761 86.4467C141.761 88.6257 141.337 90.5415 140.487 92.1942C139.638 93.8377 138.428 95.1211 136.859 96.0444C135.298 96.9585 133.442 97.4155 131.291 97.4155ZM131.319 92.8452C132.297 92.8452 133.115 92.5682 133.77 92.0142C134.426 91.451 134.92 90.6847 135.252 89.7152C135.594 88.7457 135.764 87.6424 135.764 86.4052C135.764 85.168 135.594 84.0646 135.252 83.0952C134.92 82.1257 134.426 81.3594 133.77 80.7962C133.115 80.233 132.297 79.9513 131.319 79.9513C130.331 79.9513 129.5 80.233 128.826 80.7962C128.161 81.3594 127.658 82.1257 127.316 83.0952C126.984 84.0646 126.818 85.168 126.818 86.4052C126.818 87.6424 126.984 88.7457 127.316 89.7152C127.658 90.6847 128.161 91.451 128.826 92.0142C129.5 92.5682 130.331 92.8452 131.319 92.8452ZM151.497 84.7017V97H145.598V75.7273H151.22V79.4805H151.47C151.941 78.2433 152.73 77.2646 153.838 76.5444C154.946 75.815 156.289 75.4503 157.868 75.4503C159.345 75.4503 160.633 75.7734 161.732 76.4197C162.831 77.0661 163.685 77.9893 164.294 79.1896C164.904 80.3807 165.208 81.8026 165.208 83.4553V97H159.309V84.5078C159.318 83.206 158.985 82.1903 158.311 81.4609C157.637 80.7223 156.709 80.353 155.528 80.353C154.734 80.353 154.032 80.5238 153.422 80.8654C152.822 81.207 152.351 81.7056 152.01 82.3612C151.677 83.0075 151.507 83.7876 151.497 84.7017ZM181.173 75.7273V80.1591H168.363V75.7273H181.173ZM171.271 70.6307H177.171V90.4631C177.171 91.0078 177.254 91.4325 177.42 91.7372C177.586 92.0327 177.817 92.2404 178.113 92.3604C178.417 92.4805 178.768 92.5405 179.165 92.5405C179.442 92.5405 179.719 92.5174 179.996 92.4712C180.273 92.4158 180.485 92.3743 180.633 92.3466L181.561 96.7369C181.266 96.8292 180.85 96.9354 180.315 97.0554C179.779 97.1847 179.128 97.2631 178.362 97.2908C176.94 97.3462 175.694 97.157 174.623 96.723C173.561 96.2891 172.734 95.6151 172.143 94.701C171.553 93.7869 171.262 92.6328 171.271 91.2386V70.6307ZM191.083 97.4016C189.725 97.4016 188.516 97.1662 187.454 96.6953C186.392 96.2152 185.552 95.5089 184.933 94.5763C184.324 93.6346 184.019 92.462 184.019 91.0586C184.019 89.8768 184.236 88.8842 184.67 88.081C185.104 87.2777 185.695 86.6314 186.443 86.142C187.191 85.6527 188.04 85.2834 188.991 85.0341C189.952 84.7848 190.958 84.6094 192.01 84.5078C193.248 84.3786 194.245 84.2585 195.002 84.1477C195.759 84.0277 196.308 83.8523 196.65 83.6214C196.992 83.3906 197.162 83.049 197.162 82.5966V82.5135C197.162 81.6364 196.885 80.9577 196.331 80.4776C195.787 79.9975 195.011 79.7575 194.005 79.7575C192.943 79.7575 192.098 79.9929 191.47 80.4638C190.843 80.9254 190.427 81.5071 190.224 82.2088L184.767 81.7656C185.044 80.473 185.589 79.3558 186.401 78.4141C187.214 77.4631 188.262 76.7337 189.545 76.2259C190.838 75.7088 192.334 75.4503 194.032 75.4503C195.214 75.4503 196.345 75.5888 197.426 75.8658C198.515 76.1428 199.48 76.5721 200.32 77.1538C201.17 77.7354 201.839 78.4833 202.328 79.3974C202.818 80.3022 203.062 81.3871 203.062 82.652V97H197.467V94.0501H197.301C196.959 94.7148 196.502 95.3011 195.93 95.8089C195.357 96.3075 194.67 96.6999 193.866 96.9862C193.063 97.2631 192.135 97.4016 191.083 97.4016ZM192.772 93.3299C193.64 93.3299 194.406 93.1591 195.071 92.8175C195.736 92.4666 196.258 91.9957 196.636 91.4048C197.015 90.8139 197.204 90.1445 197.204 89.3967V87.1392C197.019 87.2592 196.765 87.37 196.442 87.4716C196.128 87.5639 195.773 87.6516 195.376 87.7347C194.979 87.8086 194.582 87.8778 194.185 87.9425C193.788 87.9979 193.428 88.0487 193.105 88.0948C192.412 88.1964 191.807 88.358 191.29 88.5795C190.773 88.8011 190.372 89.1012 190.085 89.4798C189.799 89.8491 189.656 90.3107 189.656 90.8647C189.656 91.668 189.947 92.282 190.529 92.7067C191.119 93.1222 191.867 93.3299 192.772 93.3299ZM218.955 75.7273V80.1591H206.144V75.7273H218.955ZM209.052 70.6307H214.952V90.4631C214.952 91.0078 215.035 91.4325 215.201 91.7372C215.368 92.0327 215.598 92.2404 215.894 92.3604C216.199 92.4805 216.549 92.5405 216.946 92.5405C217.223 92.5405 217.5 92.5174 217.777 92.4712C218.054 92.4158 218.267 92.3743 218.414 92.3466L219.342 96.7369C219.047 96.8292 218.631 96.9354 218.096 97.0554C217.56 97.1847 216.909 97.2631 216.143 97.2908C214.721 97.3462 213.475 97.157 212.404 96.723C211.342 96.2891 210.516 95.6151 209.925 94.701C209.334 93.7869 209.043 92.6328 209.052 91.2386V70.6307ZM232.181 97.4155C230.029 97.4155 228.169 96.9585 226.599 96.0444C225.039 95.1211 223.834 93.8377 222.985 92.1942C222.135 90.5415 221.711 88.6257 221.711 86.4467C221.711 84.2493 222.135 82.3288 222.985 80.6854C223.834 79.0327 225.039 77.7493 226.599 76.8352C228.169 75.9119 230.029 75.4503 232.181 75.4503C234.332 75.4503 236.188 75.9119 237.748 76.8352C239.318 77.7493 240.527 79.0327 241.377 80.6854C242.226 82.3288 242.651 84.2493 242.651 86.4467C242.651 88.6257 242.226 90.5415 241.377 92.1942C240.527 93.8377 239.318 95.1211 237.748 96.0444C236.188 96.9585 234.332 97.4155 232.181 97.4155ZM232.208 92.8452C233.187 92.8452 234.004 92.5682 234.66 92.0142C235.315 91.451 235.809 90.6847 236.142 89.7152C236.483 88.7457 236.654 87.6424 236.654 86.4052C236.654 85.168 236.483 84.0646 236.142 83.0952C235.809 82.1257 235.315 81.3594 234.66 80.7962C234.004 80.233 233.187 79.9513 232.208 79.9513C231.221 79.9513 230.39 80.233 229.716 80.7962C229.051 81.3594 228.548 82.1257 228.206 83.0952C227.874 84.0646 227.707 85.168 227.707 86.4052C227.707 87.6424 227.874 88.7457 228.206 89.7152C228.548 90.6847 229.051 91.451 229.716 92.0142C230.39 92.5682 231.221 92.8452 232.208 92.8452ZM249.936 97.3601C249.022 97.3601 248.237 97.0369 247.581 96.3906C246.935 95.7351 246.612 94.9503 246.612 94.0362C246.612 93.1314 246.935 92.3558 247.581 91.7095C248.237 91.0632 249.022 90.7401 249.936 90.7401C250.822 90.7401 251.598 91.0632 252.262 91.7095C252.927 92.3558 253.26 93.1314 253.26 94.0362C253.26 94.6456 253.103 95.2042 252.789 95.712C252.484 96.2106 252.082 96.6122 251.584 96.9169C251.085 97.2124 250.536 97.3601 249.936 97.3601ZM249.936 82.4581C249.022 82.4581 248.237 82.1349 247.581 81.4886C246.935 80.8423 246.612 80.0575 246.612 79.1342C246.612 78.2294 246.935 77.4585 247.581 76.8214C248.237 76.1751 249.022 75.8519 249.936 75.8519C250.822 75.8519 251.598 76.1751 252.262 76.8214C252.927 77.4585 253.26 78.2294 253.26 79.1342C253.26 79.7528 253.103 80.3161 252.789 80.8239C252.484 81.3224 252.082 81.7195 251.584 82.0149C251.085 82.3104 250.536 82.4581 249.936 82.4581Z" fill="white"/>
</g>
<g filter="url(#filter2_d_368_136)">
<path d="M339.3 92.0142V73.733H342.402V92.0142H339.3ZM331.711 84.4247V81.3224H349.992V84.4247H331.711ZM365.507 97.3878C363.882 97.3878 362.418 97.0646 361.116 96.4183C359.815 95.772 358.771 94.8857 357.987 93.7592C357.202 92.6328 356.772 91.3494 356.699 89.9091H360.022C360.152 91.1925 360.733 92.2543 361.767 93.0945C362.811 93.9254 364.057 94.3409 365.507 94.3409C366.67 94.3409 367.704 94.0685 368.609 93.5238C369.523 92.979 370.239 92.2312 370.756 91.2802C371.282 90.32 371.545 89.2351 371.545 88.0256C371.545 86.7884 371.273 85.685 370.728 84.7156C370.192 83.7369 369.454 82.9659 368.512 82.4027C367.57 81.8395 366.495 81.5533 365.285 81.544C364.417 81.5348 363.526 81.6687 362.612 81.9457C361.698 82.2134 360.946 82.5597 360.355 82.9844L357.142 82.5966L358.859 68.6364H373.595V71.6832H361.74L360.743 80.0483H360.909C361.49 79.5866 362.22 79.2035 363.097 78.8988C363.974 78.5941 364.888 78.4418 365.839 78.4418C367.575 78.4418 369.121 78.8572 370.479 79.6882C371.845 80.5099 372.916 81.6364 373.692 83.0675C374.477 84.4986 374.869 86.1328 374.869 87.9702C374.869 89.7798 374.463 91.3956 373.65 92.8175C372.847 94.2301 371.739 95.3473 370.326 96.169C368.914 96.9815 367.307 97.3878 365.507 97.3878ZM389.234 97.3878C387.609 97.3878 386.146 97.0646 384.844 96.4183C383.542 95.772 382.499 94.8857 381.714 93.7592C380.929 92.6328 380.5 91.3494 380.426 89.9091H383.75C383.879 91.1925 384.461 92.2543 385.495 93.0945C386.538 93.9254 387.785 94.3409 389.234 94.3409C390.398 94.3409 391.432 94.0685 392.337 93.5238C393.251 92.979 393.966 92.2312 394.483 91.2802C395.009 90.32 395.273 89.2351 395.273 88.0256C395.273 86.7884 395 85.685 394.456 84.7156C393.92 83.7369 393.181 82.9659 392.24 82.4027C391.298 81.8395 390.222 81.5533 389.013 81.544C388.145 81.5348 387.254 81.6687 386.34 81.9457C385.426 82.2134 384.673 82.5597 384.082 82.9844L380.869 82.5966L382.587 68.6364H397.322V71.6832H385.467L384.47 80.0483H384.636C385.218 79.5866 385.947 79.2035 386.824 78.8988C387.702 78.5941 388.616 78.4418 389.567 78.4418C391.302 78.4418 392.849 78.8572 394.206 79.6882C395.573 80.5099 396.644 81.6364 397.419 83.0675C398.204 84.4986 398.597 86.1328 398.597 87.9702C398.597 89.7798 398.19 91.3956 397.378 92.8175C396.574 94.2301 395.467 95.3473 394.054 96.169C392.641 96.9815 391.035 97.3878 389.234 97.3878ZM416.286 82.8182C416.286 79.3281 416.738 76.1197 417.643 73.1928C418.557 70.2567 419.859 67.5561 421.548 65.0909H424.429C423.764 66.005 423.141 67.1314 422.559 68.4702C421.987 69.7997 421.484 71.2631 421.05 72.8604C420.616 74.4485 420.274 76.092 420.025 77.7908C419.785 79.4897 419.665 81.1655 419.665 82.8182C419.665 85.0156 419.877 87.2454 420.302 89.5075C420.727 91.7695 421.299 93.87 422.019 95.8089C422.74 97.7479 423.543 99.3267 424.429 100.545H421.548C419.859 98.0803 418.557 95.3842 417.643 92.4574C416.738 89.5213 416.286 86.3082 416.286 82.8182ZM439.168 68.6364V97H435.734V72.2372H435.568L428.643 76.8352V73.3452L435.734 68.6364H439.168ZM456.743 97.3878C455.58 97.3693 454.417 97.1477 453.253 96.723C452.09 96.2983 451.028 95.5827 450.068 94.5763C449.108 93.5607 448.337 92.1896 447.755 90.4631C447.173 88.7273 446.883 86.5483 446.883 83.9261C446.883 81.4148 447.118 79.1896 447.589 77.2507C448.06 75.3026 448.743 73.6637 449.639 72.3342C450.534 70.9954 451.614 69.9798 452.879 69.2873C454.153 68.5948 455.589 68.2486 457.187 68.2486C458.775 68.2486 460.187 68.5671 461.424 69.2042C462.671 69.832 463.687 70.7092 464.471 71.8356C465.256 72.962 465.764 74.2592 465.995 75.7273H462.616C462.302 74.4531 461.692 73.396 460.787 72.5558C459.883 71.7156 458.682 71.2955 457.187 71.2955C454.989 71.2955 453.258 72.2511 451.993 74.1623C450.737 76.0735 450.105 78.7557 450.096 82.2088H450.317C450.834 81.424 451.448 80.7546 452.159 80.2006C452.879 79.6374 453.673 79.2035 454.541 78.8988C455.409 78.5941 456.328 78.4418 457.297 78.4418C458.922 78.4418 460.409 78.848 461.757 79.6605C463.105 80.4638 464.185 81.5763 464.998 82.9982C465.81 84.4109 466.216 86.0312 466.216 87.8594C466.216 89.6136 465.824 91.2202 465.039 92.679C464.254 94.1286 463.151 95.2827 461.729 96.1413C460.316 96.9908 458.655 97.4062 456.743 97.3878ZM456.743 94.3409C457.907 94.3409 458.95 94.0501 459.873 93.4684C460.806 92.8867 461.54 92.1065 462.075 91.1278C462.62 90.1491 462.892 89.0597 462.892 87.8594C462.892 86.6868 462.629 85.6204 462.103 84.6602C461.586 83.6907 460.87 82.9197 459.956 82.3473C459.052 81.7749 458.017 81.4886 456.854 81.4886C455.977 81.4886 455.16 81.6641 454.403 82.0149C453.646 82.3565 452.981 82.8274 452.408 83.4276C451.845 84.0277 451.402 84.7156 451.079 85.4911C450.756 86.2575 450.594 87.0653 450.594 87.9148C450.594 89.0412 450.857 90.0937 451.384 91.0724C451.919 92.0511 452.649 92.8406 453.572 93.4407C454.504 94.0408 455.562 94.3409 456.743 94.3409ZM478.698 82.8182C478.698 86.3082 478.241 89.5213 477.327 92.4574C476.422 95.3842 475.125 98.0803 473.435 100.545H470.555C471.219 99.6314 471.838 98.505 472.411 97.1662C472.992 95.8366 473.5 94.3778 473.934 92.7898C474.368 91.1925 474.705 89.5444 474.945 87.8455C475.194 86.1374 475.319 84.4616 475.319 82.8182C475.319 80.6207 475.107 78.391 474.682 76.1289C474.257 73.8668 473.685 71.7663 472.964 69.8274C472.244 67.8885 471.441 66.3097 470.555 65.0909H473.435C475.125 67.5561 476.422 70.2567 477.327 73.1928C478.241 76.1197 478.698 79.3281 478.698 82.8182ZM505.791 68.2486C506.954 68.2578 508.118 68.4794 509.281 68.9134C510.445 69.3473 511.506 70.0675 512.467 71.0739C513.427 72.071 514.198 73.4329 514.779 75.1594C515.361 76.886 515.652 79.0511 515.652 81.6548C515.652 84.1754 515.412 86.4144 514.932 88.3718C514.461 90.32 513.778 91.9634 512.882 93.3022C511.996 94.641 510.915 95.6566 509.641 96.3491C508.376 97.0415 506.945 97.3878 505.348 97.3878C503.76 97.3878 502.343 97.0739 501.096 96.446C499.859 95.8089 498.843 94.9272 498.049 93.8008C497.264 92.6651 496.761 91.3494 496.54 89.8537H499.919C500.224 91.1555 500.828 92.2312 501.733 93.0806C502.647 93.9208 503.852 94.3409 505.348 94.3409C507.536 94.3409 509.263 93.3853 510.528 91.4741C511.802 89.5629 512.439 86.8622 512.439 83.3722H512.217C511.7 84.1477 511.086 84.8171 510.375 85.3803C509.664 85.9435 508.875 86.3775 508.007 86.6822C507.139 86.9869 506.216 87.1392 505.237 87.1392C503.612 87.1392 502.121 86.7376 500.764 85.9343C499.416 85.1218 498.335 84.0092 497.523 82.5966C496.72 81.1747 496.318 79.5497 496.318 77.7216C496.318 75.9858 496.706 74.3977 497.481 72.9574C498.266 71.5078 499.365 70.3537 500.778 69.495C502.199 68.6364 503.871 68.2209 505.791 68.2486ZM505.791 71.2955C504.628 71.2955 503.58 71.5863 502.647 72.168C501.724 72.7404 500.99 73.516 500.445 74.4947C499.91 75.4641 499.642 76.5398 499.642 77.7216C499.642 78.9034 499.9 79.979 500.418 80.9485C500.944 81.9087 501.659 82.6751 502.564 83.2475C503.478 83.8107 504.517 84.0923 505.68 84.0923C506.557 84.0923 507.375 83.9215 508.132 83.5799C508.889 83.229 509.549 82.7536 510.112 82.1534C510.685 81.544 511.132 80.8562 511.456 80.0898C511.779 79.3143 511.94 78.5064 511.94 77.6662C511.94 76.5582 511.672 75.5195 511.137 74.5501C510.611 73.5806 509.881 72.7958 508.949 72.1957C508.025 71.5955 506.973 71.2955 505.791 71.2955ZM530.128 68.2486C531.291 68.2578 532.455 68.4794 533.618 68.9134C534.781 69.3473 535.843 70.0675 536.803 71.0739C537.764 72.071 538.535 73.4329 539.116 75.1594C539.698 76.886 539.989 79.0511 539.989 81.6548C539.989 84.1754 539.749 86.4144 539.269 88.3718C538.798 90.32 538.115 91.9634 537.219 93.3022C536.333 94.641 535.252 95.6566 533.978 96.3491C532.713 97.0415 531.282 97.3878 529.685 97.3878C528.097 97.3878 526.68 97.0739 525.433 96.446C524.196 95.8089 523.18 94.9272 522.386 93.8008C521.601 92.6651 521.098 91.3494 520.877 89.8537H524.256C524.561 91.1555 525.165 92.2312 526.07 93.0806C526.984 93.9208 528.189 94.3409 529.685 94.3409C531.873 94.3409 533.6 93.3853 534.865 91.4741C536.139 89.5629 536.776 86.8622 536.776 83.3722H536.554C536.037 84.1477 535.423 84.8171 534.712 85.3803C534.001 85.9435 533.212 86.3775 532.344 86.6822C531.476 86.9869 530.553 87.1392 529.574 87.1392C527.949 87.1392 526.458 86.7376 525.101 85.9343C523.753 85.1218 522.672 84.0092 521.86 82.5966C521.057 81.1747 520.655 79.5497 520.655 77.7216C520.655 75.9858 521.043 74.3977 521.818 72.9574C522.603 71.5078 523.702 70.3537 525.115 69.495C526.536 68.6364 528.208 68.2209 530.128 68.2486ZM530.128 71.2955C528.965 71.2955 527.917 71.5863 526.984 72.168C526.061 72.7404 525.327 73.516 524.782 74.4947C524.247 75.4641 523.979 76.5398 523.979 77.7216C523.979 78.9034 524.237 79.979 524.754 80.9485C525.281 81.9087 525.996 82.6751 526.901 83.2475C527.815 83.8107 528.854 84.0923 530.017 84.0923C530.894 84.0923 531.711 83.9215 532.469 83.5799C533.226 83.229 533.886 82.7536 534.449 82.1534C535.021 81.544 535.469 80.8562 535.792 80.0898C536.116 79.3143 536.277 78.5064 536.277 77.6662C536.277 76.5582 536.009 75.5195 535.474 74.5501C534.948 73.5806 534.218 72.7958 533.286 72.1957C532.362 71.5955 531.31 71.2955 530.128 71.2955ZM554.465 68.2486C555.628 68.2578 556.792 68.4794 557.955 68.9134C559.118 69.3473 560.18 70.0675 561.14 71.0739C562.101 72.071 562.872 73.4329 563.453 75.1594C564.035 76.886 564.326 79.0511 564.326 81.6548C564.326 84.1754 564.086 86.4144 563.606 88.3718C563.135 90.32 562.451 91.9634 561.556 93.3022C560.669 94.641 559.589 95.6566 558.315 96.3491C557.05 97.0415 555.619 97.3878 554.022 97.3878C552.434 97.3878 551.016 97.0739 549.77 96.446C548.533 95.8089 547.517 94.9272 546.723 93.8008C545.938 92.6651 545.435 91.3494 545.214 89.8537H548.593C548.897 91.1555 549.502 92.2312 550.407 93.0806C551.321 93.9208 552.526 94.3409 554.022 94.3409C556.21 94.3409 557.937 93.3853 559.201 91.4741C560.476 89.5629 561.113 86.8622 561.113 83.3722H560.891C560.374 84.1477 559.76 84.8171 559.049 85.3803C558.338 85.9435 557.549 86.3775 556.681 86.6822C555.813 86.9869 554.89 87.1392 553.911 87.1392C552.286 87.1392 550.795 86.7376 549.438 85.9343C548.09 85.1218 547.009 84.0092 546.197 82.5966C545.394 81.1747 544.992 79.5497 544.992 77.7216C544.992 75.9858 545.38 74.3977 546.155 72.9574C546.94 71.5078 548.039 70.3537 549.451 69.495C550.873 68.6364 552.544 68.2209 554.465 68.2486ZM554.465 71.2955C553.302 71.2955 552.254 71.5863 551.321 72.168C550.398 72.7404 549.664 73.516 549.119 74.4947C548.584 75.4641 548.316 76.5398 548.316 77.7216C548.316 78.9034 548.574 79.979 549.091 80.9485C549.618 81.9087 550.333 82.6751 551.238 83.2475C552.152 83.8107 553.191 84.0923 554.354 84.0923C555.231 84.0923 556.048 83.9215 556.805 83.5799C557.563 83.229 558.223 82.7536 558.786 82.1534C559.358 81.544 559.806 80.8562 560.129 80.0898C560.453 79.3143 560.614 78.5064 560.614 77.6662C560.614 76.5582 560.346 75.5195 559.811 74.5501C559.285 73.5806 558.555 72.7958 557.623 72.1957C556.699 71.5955 555.647 71.2955 554.465 71.2955ZM569.897 97L582.583 71.9048V71.6832H567.958V68.6364H586.128V71.8494L573.498 97H569.897ZM600.099 97.3878C598.935 97.3693 597.772 97.1477 596.609 96.723C595.445 96.2983 594.384 95.5827 593.423 94.5763C592.463 93.5607 591.692 92.1896 591.111 90.4631C590.529 88.7273 590.238 86.5483 590.238 83.9261C590.238 81.4148 590.473 79.1896 590.944 77.2507C591.415 75.3026 592.098 73.6637 592.994 72.3342C593.89 70.9954 594.97 69.9798 596.235 69.2873C597.509 68.5948 598.945 68.2486 600.542 68.2486C602.13 68.2486 603.543 68.5671 604.78 69.2042C606.026 69.832 607.042 70.7092 607.827 71.8356C608.612 72.962 609.119 74.2592 609.35 75.7273H605.971C605.657 74.4531 605.048 73.396 604.143 72.5558C603.238 71.7156 602.038 71.2955 600.542 71.2955C598.345 71.2955 596.613 72.2511 595.348 74.1623C594.093 76.0735 593.46 78.7557 593.451 82.2088H593.673C594.19 81.424 594.804 80.7546 595.515 80.2006C596.235 79.6374 597.029 79.2035 597.897 78.8988C598.765 78.5941 599.683 78.4418 600.653 78.4418C602.278 78.4418 603.764 78.848 605.112 79.6605C606.46 80.4638 607.541 81.5763 608.353 82.9982C609.166 84.4109 609.572 86.0312 609.572 87.8594C609.572 89.6136 609.179 91.2202 608.395 92.679C607.61 94.1286 606.506 95.2827 605.085 96.1413C603.672 96.9908 602.01 97.4062 600.099 97.3878ZM600.099 94.3409C601.262 94.3409 602.305 94.0501 603.229 93.4684C604.161 92.8867 604.895 92.1065 605.431 91.1278C605.976 90.1491 606.248 89.0597 606.248 87.8594C606.248 86.6868 605.985 85.6204 605.459 84.6602C604.941 83.6907 604.226 82.9197 603.312 82.3473C602.407 81.7749 601.373 81.4886 600.21 81.4886C599.332 81.4886 598.515 81.6641 597.758 82.0149C597.001 82.3565 596.336 82.8274 595.764 83.4276C595.201 84.0277 594.758 84.7156 594.434 85.4911C594.111 86.2575 593.95 87.0653 593.95 87.9148C593.95 89.0412 594.213 90.0937 594.739 91.0724C595.275 92.0511 596.004 92.8406 596.927 93.4407C597.86 94.0408 598.917 94.3409 600.099 94.3409ZM627.261 81.2947V84.3416H614.852V81.2947H627.261ZM631.624 97V94.5071L640.986 84.2585C642.085 83.0582 642.989 82.0149 643.7 81.1286C644.411 80.233 644.938 79.3928 645.279 78.608C645.63 77.8139 645.805 76.983 645.805 76.1151C645.805 75.1179 645.565 74.2546 645.085 73.5252C644.614 72.7958 643.968 72.2326 643.146 71.8356C642.325 71.4386 641.401 71.2401 640.376 71.2401C639.287 71.2401 638.336 71.4663 637.523 71.9187C636.72 72.3619 636.097 72.9851 635.654 73.7884C635.22 74.5916 635.003 75.5334 635.003 76.6136H631.734C631.734 74.9517 632.118 73.4929 632.884 72.2372C633.65 70.9815 634.694 70.0028 636.014 69.3011C637.343 68.5994 638.835 68.2486 640.487 68.2486C642.149 68.2486 643.622 68.5994 644.905 69.3011C646.189 70.0028 647.195 70.9492 647.924 72.1403C648.654 73.3313 649.018 74.6562 649.018 76.1151C649.018 77.1584 648.829 78.1786 648.451 79.1758C648.081 80.1637 647.435 81.267 646.512 82.4858C645.598 83.6953 644.328 85.1726 642.703 86.9176L636.332 93.7315V93.9531H649.517V97H631.624ZM664.821 97.3878C662.993 97.3878 661.363 97.0739 659.932 96.446C658.51 95.8182 657.379 94.9457 656.539 93.8285C655.708 92.7021 655.255 91.3956 655.181 89.9091H658.672C658.745 90.8232 659.059 91.6126 659.613 92.2773C660.167 92.9329 660.892 93.4407 661.788 93.8008C662.683 94.1609 663.676 94.3409 664.765 94.3409C665.984 94.3409 667.064 94.1286 668.006 93.7038C668.948 93.2791 669.686 92.6882 670.222 91.9311C670.757 91.174 671.025 90.2969 671.025 89.2997C671.025 88.2564 670.767 87.3377 670.25 86.5437C669.733 85.7404 668.975 85.1126 667.978 84.6602C666.981 84.2077 665.762 83.9815 664.322 83.9815H662.051V80.9347H664.322C665.449 80.9347 666.436 80.7315 667.286 80.3253C668.145 79.919 668.814 79.3466 669.294 78.608C669.783 77.8693 670.028 77.0014 670.028 76.0043C670.028 75.044 669.816 74.2085 669.391 73.4975C668.966 72.7866 668.366 72.2326 667.591 71.8356C666.824 71.4386 665.919 71.2401 664.876 71.2401C663.897 71.2401 662.974 71.4201 662.106 71.7802C661.248 72.131 660.546 72.6435 660.001 73.3175C659.456 73.9822 659.161 74.7855 659.115 75.7273H655.791C655.846 74.2408 656.294 72.9389 657.134 71.8217C657.974 70.6953 659.073 69.8182 660.43 69.1903C661.797 68.5625 663.297 68.2486 664.931 68.2486C666.686 68.2486 668.191 68.604 669.446 69.315C670.702 70.0167 671.667 70.9446 672.341 72.0987C673.015 73.2528 673.352 74.4993 673.352 75.8381C673.352 77.4354 672.932 78.7972 672.092 79.9237C671.261 81.0501 670.13 81.8303 668.699 82.2642V82.4858C670.49 82.7812 671.888 83.543 672.895 84.771C673.901 85.9897 674.404 87.4993 674.404 89.2997C674.404 90.8416 673.984 92.2266 673.144 93.4545C672.313 94.6733 671.178 95.6335 669.737 96.3352C668.297 97.0369 666.658 97.3878 664.821 97.3878ZM679.404 91.1832V88.358L691.869 68.6364H693.918V73.0128H692.533L683.116 87.9148V88.1364H699.901V91.1832H679.404ZM692.755 97V90.3246V89.0089V68.6364H696.023V97H692.755ZM714.682 68.6364V97H711.247V72.2372H711.081L704.157 76.8352V73.3452L711.247 68.6364H714.682Z" fill="white"/>
</g>
<path d="M37.999 60.5C39.249 60.5 44.249 71.75 44.249 73C44.249 75.5 40.499 78 39.249 80.5C37.999 83 40.499 85.5 42.999 88C43.974 88.975 47.999 93 50.499 91.75C52.999 90.5 55.499 86.75 57.999 86.75C59.249 86.75 70.499 91.75 70.499 93C70.499 98 66.749 101.75 62.999 103C59.249 104.25 56.749 104.25 51.749 103C46.749 101.75 42.999 100.5 36.749 94.25C30.499 88 29.249 84.25 27.999 79.25C26.749 74.25 26.749 71.75 27.999 68C29.249 64.25 32.999 60.5 37.999 60.5Z" fill="white" fill-opacity="0.3" stroke="white" stroke-width="5" stroke-linecap="round" stroke-linejoin="round"/>
<defs>
<filter id="filter0_d_368_136" x="0.566895" y="0" width="1478" height="181" filterUnits="userSpaceOnUse" color-interpolation-filters="sRGB">
<feFlood flood-opacity="0" result="BackgroundImageFix"/>
<feColorMatrix in="SourceAlpha" type="matrix" values="0 0 0 0 0 0 0 0 0 0 0 0 0 0 0 0 0 0 127 0" result="hardAlpha"/>
<feOffset dy="8"/>
<feGaussianBlur stdDeviation="8"/>
<feComposite in2="hardAlpha" operator="out"/>
<feColorMatrix type="matrix" values="0 0 0 0 0.0784314 0 0 0 0 0.568627 0 0 0 0 0.890196 0 0 0 0.5 0"/>
<feBlend mode="normal" in2="BackgroundImageFix" result="effect1_dropShadow_368_136"/>
<feBlend mode="normal" in="SourceGraphic" in2="effect1_dropShadow_368_136" result="shape"/>
</filter>
<filter id="filter1_d_368_136" x="87.9656" y="68.2485" width="169.294" height="37.167" filterUnits="userSpaceOnUse" color-interpolation-filters="sRGB">
<feFlood flood-opacity="0" result="BackgroundImageFix"/>
<feColorMatrix in="SourceAlpha" type="matrix" values="0 0 0 0 0 0 0 0 0 0 0 0 0 0 0 0 0 0 127 0" result="hardAlpha"/>
<feOffset dy="4"/>
<feGaussianBlur stdDeviation="2"/>
<feComposite in2="hardAlpha" operator="out"/>
<feColorMatrix type="matrix" values="0 0 0 0 0 0 0 0 0 0 0 0 0 0 0 0 0 0 0.25 0"/>
<feBlend mode="normal" in2="BackgroundImageFix" result="effect1_dropShadow_368_136"/>
<feBlend mode="normal" in="SourceGraphic" in2="effect1_dropShadow_368_136" result="shape"/>
</filter>
<filter id="filter2_d_368_136" x="327.711" y="65.0908" width="390.971" height="43.4546" filterUnits="userSpaceOnUse" color-interpolation-filters="sRGB">
<feFlood flood-opacity="0" result="BackgroundImageFix"/>
<feColorMatrix in="SourceAlpha" type="matrix" values="0 0 0 0 0 0 0 0 0 0 0 0 0 0 0 0 0 0 127 0" result="hardAlpha"/>
<feOffset dy="4"/>
<feGaussianBlur stdDeviation="2"/>
<feComposite in2="hardAlpha" operator="out"/>
<feColorMatrix type="matrix" values="0 0 0 0 0 0 0 0 0 0 0 0 0 0 0 0 0 0 0.25 0"/>
<feBlend mode="normal" in2="BackgroundImageFix" result="effect1_dropShadow_368_136"/>
<feBlend mode="normal" in="SourceGraphic" in2="effect1_dropShadow_368_136" result="shape"/>
</filter>
</defs>
</svg>
