<svg width="246" height="350" viewBox="0 0 246 350" fill="none" xmlns="http://www.w3.org/2000/svg">
<path opacity="0.26" d="M233.698 329.854C233.698 340.617 184.023 349.341 122.746 349.341C61.4692 349.341 11.7942 340.616 11.7942 329.854C11.7942 319.092 61.4692 310.367 122.746 310.367C184.023 310.367 233.698 319.091 233.698 329.854Z" fill="url(#paint0_radial_297_271)"/>
<path d="M123.087 293.735H122.393L122.746 293.587L123.087 293.735Z" fill="white"/>
<path d="M241.349 129.734C241.194 130.664 241.025 131.608 240.856 132.552H4.67415C4.50515 131.608 4.33615 130.664 4.18115 129.734H241.349Z" fill="#E82438"/>
<path d="M227.119 183.272C226.753 184.216 226.372 185.146 225.992 186.09H19.7171C19.3371 185.146 18.9561 184.216 18.5901 183.272H227.119Z" fill="#E82438"/>
<path d="M14.205 74.406C14.261 78.703 14.698 107.952 17.065 120.097L15.684 120.365C13.106 107.192 12.796 74.224 12.796 73.885L12.782 73.35L32.295 67.573L32.69 68.926L14.205 74.406Z" fill="#EF2138"/>
<path d="M231.965 73.3489L231.951 73.8839C231.951 74.2219 231.627 107.19 229.063 120.364L227.682 120.096C230.049 107.951 230.486 78.7019 230.542 74.4049L212.691 69.1069L213.086 67.7539L231.965 73.3489Z" fill="#EF2138"/>
<path d="M208.857 193.55C208.857 193.55 198.898 217.137 178.448 240.748C164.456 256.903 144.58 274.303 122.74 283.279C100.9 274.303 81.024 256.903 67.032 240.748C46.582 217.137 36.623 193.55 36.623 193.55" stroke="#EF2138" stroke-width="1.4089" stroke-miterlimit="10"/>
<path d="M125.783 47.261C125.999 45.35 128.672 43.78 132.289 42.484C132.073 39.97 131.925 30.256 130.605 25.115C128.956 23.284 125.475 22.328 125.475 22.328C127.386 22.51 128.592 22.783 129.342 23.01C128.318 22.066 126.589 21.304 123.768 21.895C119.082 22.896 118.945 26.877 119.082 29.061C119.287 32.69 119.617 38.229 119.799 40.47C120.061 43.678 120.117 49.899 122.654 51.81C124.394 53.118 126.533 53.3 127.727 53.118C126.193 51.14 125.613 48.922 125.783 47.261ZM146.758 31.747C147.327 28.244 143.243 25.741 141.662 25.218C139.671 24.558 135.224 24.399 133.814 28.801C133.678 32.862 134.212 39.493 134.633 41.711C135.771 41.358 136.453 41.188 137.659 40.869C140.73 40.096 143.437 39.413 146.076 39.231C146.076 38.31 146.133 35.716 146.099 33.532C146.099 30.631 144.154 28.618 143.915 28.379C145.529 29.472 146.348 30.734 146.758 31.747ZM125.783 47.261C125.999 45.35 128.672 43.78 132.289 42.484C132.073 39.97 131.925 30.256 130.605 25.115C128.956 23.284 125.475 22.328 125.475 22.328C127.386 22.51 128.592 22.783 129.342 23.01C128.318 22.066 126.589 21.304 123.768 21.895C119.082 22.896 118.945 26.877 119.082 29.061C119.287 32.69 119.617 38.229 119.799 40.47C120.061 43.678 120.117 49.899 122.654 51.81C124.394 53.118 126.533 53.3 127.727 53.118C126.193 51.14 125.613 48.922 125.783 47.261ZM146.758 31.747C147.327 28.244 143.243 25.741 141.662 25.218C139.671 24.558 135.224 24.399 133.814 28.801C133.678 32.862 134.212 39.493 134.633 41.711C135.771 41.358 136.453 41.188 137.659 40.869C140.73 40.096 143.437 39.413 146.076 39.231C146.076 38.31 146.133 35.716 146.099 33.532C146.099 30.631 144.154 28.618 143.915 28.379C145.529 29.472 146.348 30.734 146.758 31.747ZM210.944 33.532H205.439V18.257C205.439 15.311 203.05 12.922 200.104 12.922H197.511C194.565 12.922 192.176 15.311 192.176 18.257V33.533H191.71V11.523C191.71 8.57699 189.321 6.188 186.375 6.188H183.782C180.836 6.188 178.447 8.57699 178.447 11.523V33.533H177.981V5.335C177.981 2.389 175.592 0 172.646 0H170.053C167.107 0 164.718 2.389 164.718 5.335V33.532H151.876C151.853 33.486 151.83 33.464 151.83 33.464C149.896 27.185 147.587 24.171 143.288 22.135C138.181 19.712 133.79 22.192 133.79 22.192C133.79 22.192 131.174 17.961 125.669 17.585C120.175 17.21 116.467 21.396 116.467 21.396C116.467 21.396 112.588 18.757 108.277 19.201C103.955 19.645 100.702 23.341 100.702 23.341C100.702 23.341 94.7992 21.624 90.5102 23.239C87.2342 24.479 85.5622 28.107 85.3352 30.2C85.2442 31.019 85.1302 32.202 84.9822 33.533H81.0012V5.335C81.0012 2.389 78.6122 0 75.6662 0H73.0732C70.1272 0 67.7382 2.389 67.7382 5.335V33.532H67.2722V11.522C67.2722 8.576 64.8832 6.187 61.9372 6.187H59.3442C56.3982 6.187 54.0092 8.576 54.0092 11.522V33.532H53.5432V18.257C53.5432 15.311 51.1542 12.922 48.2082 12.922H45.6152C42.6692 12.922 40.2802 15.311 40.2802 18.257V33.533H35.0022C33.9902 33.533 33.1592 34.363 33.1592 35.376V45.533C33.1592 46.568 33.9892 47.387 35.0022 47.387H40.2802V62.663C40.2802 65.609 42.6692 67.998 45.6152 67.998H48.2082C51.1542 67.998 53.5432 65.609 53.5432 62.663V47.387H54.0092V69.408C54.0092 72.354 56.3982 74.743 59.3442 74.743H61.9372C64.8832 74.743 67.2722 72.354 67.2722 69.408V47.387H67.7382V75.584C67.7382 78.53 70.1272 80.919 73.0732 80.919H75.6662C78.6122 80.919 81.0012 78.53 81.0012 75.584V47.387H83.7762C83.7762 51.959 83.9352 63.084 85.2892 72.195C87.0522 83.979 92.9552 87.175 92.9552 87.175L91.1582 118.546H93.0692L94.8782 86.527C93.2402 85.378 91.7842 83.956 90.7722 82.159C84.4932 70.966 85.8472 47.387 85.8472 47.387H88.2132C88.2132 47.387 88.0992 49.286 88.1112 52.244C88.8282 51.425 89.6352 50.925 90.2382 50.652C90.0672 50.22 89.9202 49.765 89.7602 49.276C87.6332 42.622 87.2122 33.602 87.3832 31.748C87.5652 29.871 88.5432 25.89 93.0702 24.832C97.5972 23.763 101.897 25.367 101.897 25.367C101.897 25.367 104.126 21.625 109.051 21.227C113.965 20.829 117.389 24.162 117.389 24.162C119.232 20.477 123.508 19.362 127.125 19.817C132.846 20.522 132.972 26.153 132.972 26.153C132.972 26.153 134.746 22.604 139.49 22.979C143.073 23.263 148.806 25.823 149.75 33.535H148.055C148.055 35.878 147.918 38.244 147.896 39.131C148.931 39.131 149.853 39.245 150.569 39.506C151.888 40.006 152.992 41.007 153.913 42.27C154.811 43.544 155.528 45.079 156.097 46.626C156.097 46.626 160.01 56.033 160.806 59.502C161.272 61.504 162.307 63.927 161.807 66.395C161.477 68.181 160.271 69.898 158.167 72.48C155.221 76.04 151.672 80.033 148.101 83.183C142.118 88.506 139.058 90.792 139.058 90.792L140.696 118.546H142.88L141.117 91.406C151.161 84.229 159.999 73.412 160.818 72.456C162.524 70.466 164.856 66.518 163.047 61.025C161.625 56.691 160.351 52.38 158.85 48.604C158.679 48.194 158.52 47.785 158.35 47.387H164.72V75.584C164.72 78.53 167.109 80.919 170.055 80.919H172.648C175.594 80.919 177.983 78.53 177.983 75.584V47.387H178.449V69.408C178.449 72.354 180.838 74.743 183.784 74.743H186.377C189.323 74.743 191.712 72.354 191.712 69.408V47.387H192.178V62.663C192.178 65.609 194.567 67.998 197.513 67.998H200.106C203.052 67.998 205.441 65.609 205.441 62.663V47.387H210.946C211.97 47.387 212.789 46.568 212.789 45.533V35.376C212.786 34.363 211.967 33.532 210.944 33.532ZM40.2812 36.012H34.6512C34.6512 36.012 34.6512 35.989 34.6512 35.932C34.6512 35.636 34.7422 34.783 35.9132 34.783H40.2812V36.012ZM43.7622 19.826L42.4652 33.532V19.246C42.4652 14.867 47.0722 14.708 47.0722 14.708C43.8642 15.64 43.7622 19.826 43.7622 19.826ZM57.5252 13.047L56.2282 33.532V12.467C56.2282 8.076 60.8352 7.92899 60.8352 7.92899C57.6272 8.86099 57.5252 13.047 57.5252 13.047ZM71.0602 6.757L69.7632 33.533V6.188C69.7632 1.798 74.3702 1.64999 74.3702 1.64999C71.1522 2.58199 71.0602 6.757 71.0602 6.757ZM81.0022 36.012V34.783H84.8692C84.8802 35.136 84.9372 36.012 84.9372 36.012H81.0022ZM164.718 36.012H149.544C149.544 36.012 149.601 35.136 149.612 34.783H164.717L164.718 36.012ZM168.039 6.757L166.742 33.533V6.188C166.742 1.798 171.349 1.64999 171.349 1.64999C168.13 2.58199 168.039 6.757 168.039 6.757ZM181.564 13.047L180.279 33.532V12.467C180.279 8.076 184.886 7.92899 184.886 7.92899C181.666 8.86099 181.564 13.047 181.564 13.047ZM195.236 19.826L193.939 33.532V19.246C193.939 14.867 198.546 14.708 198.546 14.708C195.327 15.64 195.236 19.826 195.236 19.826ZM211.069 36.012H205.439V34.783H209.807C210.979 34.783 211.07 35.636 211.07 35.932C211.069 35.989 211.069 36.012 211.069 36.012ZM146.758 31.747C147.327 28.244 143.243 25.741 141.662 25.218C139.671 24.558 135.224 24.399 133.814 28.801C133.678 32.862 134.212 39.493 134.633 41.711C135.771 41.358 136.453 41.188 137.659 40.869C140.73 40.096 143.437 39.413 146.076 39.231C146.076 38.31 146.133 35.716 146.099 33.532C146.099 30.631 144.154 28.618 143.915 28.379C145.529 29.472 146.348 30.734 146.758 31.747ZM125.783 47.261C125.999 45.35 128.672 43.78 132.289 42.484C132.073 39.97 131.925 30.256 130.605 25.115C128.956 23.284 125.475 22.328 125.475 22.328C127.386 22.51 128.592 22.783 129.342 23.01C128.318 22.066 126.589 21.304 123.768 21.895C119.082 22.896 118.945 26.877 119.082 29.061C119.287 32.69 119.617 38.229 119.799 40.47C120.061 43.678 120.117 49.899 122.654 51.81C124.394 53.118 126.533 53.3 127.727 53.118C126.193 51.14 125.613 48.922 125.783 47.261ZM146.758 31.747C147.327 28.244 143.243 25.741 141.662 25.218C139.671 24.558 135.224 24.399 133.814 28.801C133.678 32.862 134.212 39.493 134.633 41.711C135.771 41.358 136.453 41.188 137.659 40.869C140.73 40.096 143.437 39.413 146.076 39.231C146.076 38.31 146.133 35.716 146.099 33.532C146.099 30.631 144.154 28.618 143.915 28.379C145.529 29.472 146.348 30.734 146.758 31.747ZM125.783 47.261C125.999 45.35 128.672 43.78 132.289 42.484C132.073 39.97 131.925 30.256 130.605 25.115C128.956 23.284 125.475 22.328 125.475 22.328C127.386 22.51 128.592 22.783 129.342 23.01C128.318 22.066 126.589 21.304 123.768 21.895C119.082 22.896 118.945 26.877 119.082 29.061C119.287 32.69 119.617 38.229 119.799 40.47C120.061 43.678 120.117 49.899 122.654 51.81C124.394 53.118 126.533 53.3 127.727 53.118C126.193 51.14 125.613 48.922 125.783 47.261ZM149.908 41.574C148.384 40.778 143.789 41.381 139.216 42.461C141.9 44.815 141.934 47.796 141.934 47.921C141.752 47.477 141.536 47.068 141.297 46.704C139.636 44.145 136.36 43.132 133.471 44.088C132.516 44.407 131.64 44.725 130.889 45.044C128.864 45.874 127.715 47.171 127.863 48.229C127.886 48.331 127.897 48.411 127.92 48.513C128.375 49.275 129.41 50.071 131.605 50.538C136.678 51.653 139.943 49.503 139.943 49.503C139.943 49.503 137.304 52.085 131.571 51.232C130.035 50.993 129.012 50.549 128.318 50.06C130.013 54.917 135.165 56.293 140.102 56.1C142.491 56.009 146.028 54.792 147.859 53.245C149.019 52.278 150.077 51.004 150.612 49.423C150.612 49.423 150.532 52.141 148.69 54.291C150.555 54.109 151.613 53.404 151.75 53.301C151.648 53.54 149.668 57.384 139.534 57.726C137.475 57.794 135.701 57.567 134.154 57.157C118.81 60.012 115.671 77.028 115.671 77.028C115.864 62.514 126.92 56.963 130.446 55.564C130.093 55.348 129.752 55.109 129.445 54.847C129.445 54.847 128.592 54.119 128.239 53.732C128.239 53.732 123.018 55.836 119.754 51.048C119.344 51.537 118.503 52.254 116.808 52.72C114.021 53.482 111.962 52.174 111.962 52.174C116.489 53.198 118.866 49.501 118.866 49.501H118.877C118.627 48.944 118.388 48.364 118.195 47.692C116.876 43.415 116.534 31.461 116.455 27.514C114.487 25.603 111.882 24.875 111.882 24.875C114.521 25.057 116.034 25.956 116.364 26.172C115.863 25.683 112.451 22.669 108.607 23.476C108.573 23.487 108.527 23.487 108.482 23.499C105.365 24.193 103.318 27.161 103.58 30.346C103.887 34.077 104.456 40.515 104.945 43.802C105.662 48.579 106.515 52.788 110.678 54.483C114.625 56.064 119.038 52.674 119.482 52.322C119.22 52.766 116.229 57.452 110.712 56.508C108.642 56.155 106.606 54.893 105.173 52.493C104.684 52.937 103.911 53.426 102.637 53.778C99.8502 54.54 97.7912 53.232 97.7912 53.232C101.385 54.051 103.638 51.867 104.4 50.934C104.241 50.581 104.104 50.229 103.979 49.831C102.83 46.225 101.431 32.531 101.079 28.925C98.9412 27.935 96.1542 27.799 96.1542 27.799C97.7802 27.208 100.704 27.97 100.965 28.038C100.578 27.833 96.1882 25.627 92.1952 27.663C88.0322 29.79 89.2492 37.263 89.9432 41.255C90.7852 46.18 92.5022 53.79 96.4952 55.211C100.283 56.553 104.662 53.914 105.106 53.653C104.89 54.017 102.513 57.748 97.7922 57.441C94.9372 57.259 92.5262 56.201 90.5352 51.401C88.2372 53.289 88.2262 56.622 88.2262 56.713L88.2152 56.667V56.747C89.6482 55.234 91.6162 54.722 91.8552 54.677C88.4082 56.747 88.7162 63.185 88.7382 63.515C89.4212 69.578 90.8202 76.129 93.5952 80.918C97.0192 86.833 107.768 90.791 107.768 90.791C107.768 90.791 104.651 90.598 100.977 89.426L99.0322 108.046L98.8732 88.664C98.4862 88.505 98.1002 88.334 97.7132 88.152L95.3702 118.545H138.309L135.818 91.633C134.464 91.986 129.972 92.259 127.799 92.406L126.855 114.916L125.285 92.565C122.544 92.679 120.03 92.633 118.972 92.463C120.837 92.338 124.011 91.962 127.764 90.962C120.917 91.599 114.558 91.064 114.558 91.064C125.364 90.313 131.972 89.415 135.612 88.072C138.194 87.117 140.617 85.376 143.062 83.477C153.333 75.424 159.02 67.234 159.532 65.653C160.452 62.754 153.662 43.576 149.908 41.574ZM114.5 79.133C114.5 79.133 113.101 73.958 114.818 68.691C114.5 67.008 113.624 65.654 113.521 65.483C114.283 65.949 114.954 66.962 115.273 67.485C116.092 65.551 117.377 63.641 119.368 62.048C118.799 62.697 114.056 68.372 114.5 79.133ZM141.969 58.044C142.265 58.249 147.645 61.968 152.456 61.058C152.456 61.059 145.313 64.255 141.969 58.044ZM146.758 31.747C147.327 28.244 143.243 25.741 141.662 25.218C139.671 24.558 135.224 24.399 133.814 28.801C133.678 32.862 134.212 39.493 134.633 41.711C135.771 41.358 136.453 41.188 137.659 40.869C140.73 40.096 143.437 39.413 146.076 39.231C146.076 38.31 146.133 35.716 146.099 33.532C146.099 30.631 144.154 28.618 143.915 28.379C145.529 29.472 146.348 30.734 146.758 31.747ZM125.783 47.261C125.999 45.35 128.672 43.78 132.289 42.484C132.073 39.97 131.925 30.256 130.605 25.115C128.956 23.284 125.475 22.328 125.475 22.328C127.386 22.51 128.592 22.783 129.342 23.01C128.318 22.066 126.589 21.304 123.768 21.895C119.082 22.896 118.945 26.877 119.082 29.061C119.287 32.69 119.617 38.229 119.799 40.47C120.061 43.678 120.117 49.899 122.654 51.81C124.394 53.118 126.533 53.3 127.727 53.118C126.193 51.14 125.613 48.922 125.783 47.261Z" fill="#EF2138"/>
<path d="M140.695 118.545H138.306L138.875 124.676H141.059L140.695 118.545ZM93.0703 118.545L92.7173 124.676H94.8903L95.3683 118.545H93.0703Z" fill="url(#paint1_linear_297_271)"/>
<path d="M122.393 293.735L122.746 293.587L123.087 293.735H122.393Z" fill="#EF2138"/>
<path d="M201.116 190.091L210.25 196.711C191.129 237.363 161.727 267.699 122.746 286.888C83.7661 267.699 54.3851 237.386 35.2651 196.768L44.4901 190.091H21.2861L21.6951 191.069C42.2711 239.934 75.5421 275.616 120.551 297.113L122.746 298.16L124.941 297.113C169.95 275.615 203.197 239.945 223.785 191.069L224.194 190.091H201.116ZM216.256 200.942C214.982 203.66 213.651 206.367 212.252 209.018C210.864 211.691 209.408 214.319 207.907 216.935C206.406 219.54 204.847 222.11 203.243 224.658C201.628 227.194 199.956 229.708 198.238 232.176C196.509 234.633 194.757 237.09 192.926 239.478C191.117 241.889 189.218 244.221 187.307 246.564L184.395 250.01L181.381 253.388C180.391 254.525 179.345 255.595 178.31 256.698C177.263 257.79 176.24 258.893 175.159 259.94L171.929 263.113L168.596 266.173C167.504 267.208 166.333 268.175 165.195 269.153C164.035 270.131 162.92 271.144 161.726 272.065L158.188 274.886C156.994 275.819 155.765 276.683 154.548 277.582C152.148 279.425 149.589 281.028 147.098 282.735L143.254 285.124L141.32 286.307L139.341 287.41L135.383 289.617L131.334 291.653L129.298 292.654L127.228 293.575L123.088 295.429L122.746 295.578L122.393 295.43L118.241 293.587L116.171 292.666L114.146 291.654L110.097 289.618L106.139 287.411L104.16 286.308L102.226 285.125L98.3701 282.748C95.8901 281.03 93.3311 279.427 90.9311 277.584C89.7141 276.685 88.4851 275.821 87.2911 274.888L83.7531 272.067C82.5591 271.146 81.4441 270.133 80.2841 269.155C79.1461 268.177 77.9751 267.21 76.8831 266.175L73.5501 263.115L70.3201 259.942C69.2401 258.895 68.2161 257.792 67.1691 256.7C66.1341 255.608 65.0761 254.527 64.0861 253.39L61.0831 250.012L58.1601 246.566C56.2601 244.234 54.3611 241.891 52.5521 239.48C50.7211 237.091 48.9691 234.646 47.2401 232.178C45.5111 229.71 43.8511 227.196 42.2241 224.66C40.6321 222.112 39.0731 219.542 37.5601 216.937C36.0701 214.321 34.6031 211.693 33.2261 209.032C31.8151 206.37 30.4851 203.675 29.2111 200.945C27.9481 198.226 26.7201 195.474 25.6391 192.676C26.7991 195.451 28.0841 198.159 29.4151 200.854C30.7571 203.538 32.1561 206.2 33.6121 208.816C35.0681 211.444 36.5921 214.026 38.1391 216.596C39.7091 219.155 41.3241 221.68 42.9731 224.183C44.6451 226.674 46.3281 229.154 48.0801 231.588C49.8321 234.011 51.6061 236.422 53.4711 238.777C55.2911 241.154 57.2131 243.452 59.1471 245.738L62.0931 249.127L65.1301 252.437C66.1201 253.552 67.1891 254.609 68.2241 255.679C69.2711 256.748 70.3061 257.84 71.3981 258.864L74.6171 261.981L77.9381 264.995C79.0301 266.019 80.1901 266.974 81.3281 267.941C82.4771 268.897 83.5801 269.909 84.7741 270.807L88.2891 273.582C89.4721 274.503 90.7001 275.356 91.9061 276.244C94.2831 278.053 96.8311 279.622 99.2991 281.306L103.121 283.649L105.032 284.809L107 285.89L110.924 288.051L114.928 290.042L116.941 291.032L118.988 291.931L122.746 293.587L126.488 291.926L128.535 291.027L130.548 290.037L134.563 288.046L138.487 285.885L140.443 284.804L142.354 283.644L146.176 281.301C148.644 279.618 151.192 278.048 153.569 276.239C154.775 275.352 156.003 274.499 157.186 273.577L160.701 270.802C161.895 269.903 162.999 268.891 164.148 267.936C165.285 266.969 166.446 266.025 167.538 265.001L170.859 261.975L174.078 258.858C175.17 257.834 176.205 256.742 177.251 255.673C178.298 254.604 179.355 253.546 180.356 252.431L183.382 249.121L186.328 245.732C188.262 243.446 190.184 241.148 192.004 238.771C193.869 236.428 195.644 234.005 197.396 231.582C199.148 229.148 200.831 226.668 202.503 224.177C204.152 221.675 205.767 219.15 207.337 216.59C208.884 214.019 210.42 211.437 211.864 208.81C213.32 206.194 214.719 203.532 216.061 200.848C217.392 198.152 218.677 195.445 219.837 192.67C218.747 195.471 217.53 198.224 216.256 200.942Z" fill="#EF2138"/>
<path d="M245.135 68.054L244.873 64.767L241.768 63.652C234.909 61.241 228.153 59.022 221.59 57.021L220.157 43.792L213.844 65.301L214.526 65.506C221.464 67.542 228.403 69.76 235.171 72.115C235.455 79.952 235.615 99.846 231.724 124.938L231.587 125.746H241.881L241.972 125.155C246.944 92.577 245.215 69.043 245.135 68.054ZM243.145 94.147C243.008 96.411 242.895 98.674 242.69 100.937C242.508 103.201 242.281 105.464 242.03 107.728L241.598 111.106C241.461 112.232 241.257 113.347 241.075 114.473C240.734 116.714 240.29 118.943 239.824 121.173C239.926 120.036 240.006 118.909 240.131 117.783C240.256 116.657 240.324 115.519 240.415 114.393C240.597 112.141 240.711 109.877 240.87 107.625C240.961 105.361 241.132 103.109 241.189 100.846C241.291 98.594 241.371 96.33 241.439 94.067L241.61 87.288L241.712 80.509C241.735 76.164 241.769 71.796 241.712 67.451C238.595 66.291 235.456 65.108 232.351 63.891L227.449 61.946C225.823 61.298 224.185 60.638 222.569 59.955C224.264 60.433 225.947 60.933 227.631 61.445L232.67 62.981C236.037 64.027 239.381 65.119 242.714 66.211L243.203 66.359L243.226 66.894C243.34 69.18 243.408 71.444 243.454 73.707C243.511 75.982 243.511 78.257 243.511 80.52C243.509 85.059 243.361 89.609 243.145 94.147Z" fill="#E82438"/>
<path d="M30.9541 65.506L31.6361 65.301L25.3571 43.792L23.9011 57.009C17.1791 59.068 10.4111 61.286 3.71109 63.652L0.606098 64.767L0.356098 68.043C0.333098 68.282 -1.5319 92.055 3.5071 125.143L3.5981 125.746H13.9151L13.7901 124.938C9.8771 99.812 10.0251 79.941 10.3091 72.115C17.1571 69.737 24.1071 67.519 30.9541 65.506ZM5.08809 80.509L5.1901 87.288L5.3611 94.067C5.4291 96.331 5.5091 98.594 5.6111 100.846C5.6681 103.11 5.8381 105.362 5.9291 107.625C6.0881 109.877 6.2131 112.141 6.3841 114.393C6.4751 115.519 6.54309 116.657 6.66809 117.783C6.79309 118.909 6.8731 120.035 6.9751 121.173C6.5091 118.944 6.06509 116.714 5.72409 114.473C5.55309 113.347 5.3371 112.232 5.2011 111.106L4.76909 107.728C4.53009 105.464 4.2911 103.201 4.1091 100.937C3.9161 98.674 3.7901 96.41 3.6541 94.147C3.4381 89.609 3.2901 85.059 3.2901 80.52C3.2901 78.256 3.2901 75.982 3.3471 73.707C3.3921 71.444 3.4611 69.18 3.5741 66.894L3.5971 66.359L4.08609 66.211C7.41909 65.119 10.7631 64.027 14.1301 62.981L19.1691 61.445C20.8521 60.933 22.5361 60.433 24.2311 59.955C22.6161 60.637 20.9891 61.297 19.3511 61.946L14.4491 63.891C11.3441 65.108 8.20409 66.291 5.08809 67.451C5.03209 71.796 5.06609 76.164 5.08809 80.509Z" fill="#EF2138"/>
<path d="M11.7922 118.544H235.572L234.75 125.747H10.9702L11.7922 118.544Z" fill="#EF2138"/>
<path d="M122.86 239.305L126.58 246.842L134.897 248.05L128.879 253.917L130.299 262.201L122.86 258.29L115.42 262.201L116.841 253.917L110.823 248.05L119.14 246.842L122.86 239.305Z" fill="#EF2138"/>
<path d="M91.6001 234.383L93.8861 239.015L98.9971 239.758L95.2981 243.363L96.1711 248.453L91.6001 246.049L87.0291 248.453L87.9021 243.363L84.2031 239.758L89.3141 239.015L91.6001 234.383Z" fill="#EF2138"/>
<path d="M154.12 234.383L156.406 239.015L161.517 239.758L157.818 243.363L158.691 248.453L154.12 246.049L149.548 248.453L150.422 243.363L146.723 239.758L151.834 239.015L154.12 234.383Z" fill="#EF2138"/>
<path d="M34.3114 142.911V153.308H17.8896V159.097H29.7039V168.962H17.8896V184.734H4.77583V142.911H34.3114ZM51.8671 142.911V184.734H38.7533V142.911H51.8671ZM90.6335 142.911V153.308H79.5281V184.734H66.4143V153.308H55.4271V142.911H90.6335ZM134.3 184.734H121.186L107.304 163.704V184.734H94.1902V142.911H107.304L121.186 164.295V142.911H134.3V184.734ZM153.338 153.367V158.506H166.334V168.371H153.338V174.278H168.106V184.734H140.224V142.911H168.106V153.367H153.338ZM189.411 185.147C184.409 185.147 180.274 183.985 177.006 181.662C173.777 179.299 172.024 175.853 171.748 171.324H185.689C185.886 173.727 186.949 174.928 188.879 174.928C189.588 174.928 190.179 174.77 190.651 174.455C191.163 174.101 191.419 173.569 191.419 172.86C191.419 171.876 190.887 171.088 189.824 170.497C188.761 169.867 187.107 169.159 184.862 168.371C182.184 167.426 179.959 166.5 178.187 165.595C176.454 164.689 174.958 163.37 173.698 161.637C172.438 159.904 171.827 157.679 171.867 154.962C171.867 152.244 172.556 149.941 173.934 148.05C175.352 146.121 177.262 144.664 179.664 143.679C182.106 142.695 184.843 142.202 187.875 142.202C192.994 142.202 197.051 143.384 200.044 145.747C203.076 148.109 204.671 151.437 204.828 155.73H190.71C190.671 154.548 190.376 153.702 189.824 153.19C189.273 152.678 188.603 152.422 187.816 152.422C187.264 152.422 186.812 152.619 186.457 153.012C186.103 153.367 185.926 153.879 185.926 154.548C185.926 155.493 186.437 156.281 187.461 156.911C188.525 157.502 190.198 158.23 192.482 159.097C195.121 160.081 197.287 161.026 198.98 161.932C200.713 162.838 202.209 164.098 203.47 165.713C204.73 167.327 205.36 169.355 205.36 171.797C205.36 174.357 204.73 176.661 203.47 178.708C202.209 180.717 200.378 182.292 197.976 183.434C195.574 184.576 192.719 185.147 189.411 185.147ZM226.33 185.147C221.329 185.147 217.194 183.985 213.925 181.662C210.696 179.299 208.944 175.853 208.668 171.324H222.609C222.806 173.727 223.869 174.928 225.799 174.928C226.507 174.928 227.098 174.77 227.571 174.455C228.083 174.101 228.339 173.569 228.339 172.86C228.339 171.876 227.807 171.088 226.744 170.497C225.68 169.867 224.026 169.159 221.782 168.371C219.104 167.426 216.879 166.5 215.107 165.595C213.374 164.689 211.877 163.37 210.617 161.637C209.357 159.904 208.747 157.679 208.786 154.962C208.786 152.244 209.475 149.941 210.854 148.05C212.271 146.121 214.181 144.664 216.583 143.679C219.025 142.695 221.762 142.202 224.794 142.202C229.914 142.202 233.97 143.384 236.963 145.747C239.995 148.109 241.59 151.437 241.748 155.73H227.63C227.59 154.548 227.295 153.702 226.744 153.19C226.192 152.678 225.523 152.422 224.735 152.422C224.184 152.422 223.731 152.619 223.377 153.012C223.022 153.367 222.845 153.879 222.845 154.548C222.845 155.493 223.357 156.281 224.381 156.911C225.444 157.502 227.118 158.23 229.402 159.097C232.04 160.081 234.206 161.026 235.9 161.932C237.633 162.838 239.129 164.098 240.389 165.713C241.649 167.327 242.279 169.355 242.279 171.797C242.279 174.357 241.649 176.661 240.389 178.708C239.129 180.717 237.298 182.292 234.896 183.434C232.493 184.576 229.638 185.147 226.33 185.147Z" fill="#EF2138"/>
<path d="M80.1485 223.004H88.2197V227.761H73.9869V202.466H80.1485V223.004ZM103.121 228.013C100.743 228.013 98.5573 227.46 96.5635 226.355C94.5937 225.25 93.0203 223.713 91.8432 221.743C90.6902 219.75 90.1137 217.516 90.1137 215.041C90.1137 212.567 90.6902 210.345 91.8432 208.375C93.0203 206.406 94.5937 204.868 96.5635 203.763C98.5573 202.658 100.743 202.106 103.121 202.106C105.5 202.106 107.673 202.658 109.643 203.763C111.637 204.868 113.198 206.406 114.327 208.375C115.48 210.345 116.057 212.567 116.057 215.041C116.057 217.516 115.48 219.75 114.327 221.743C113.174 223.713 111.613 225.25 109.643 226.355C107.673 227.46 105.5 228.013 103.121 228.013ZM103.121 222.392C105.139 222.392 106.749 221.719 107.95 220.374C109.175 219.029 109.787 217.251 109.787 215.041C109.787 212.807 109.175 211.03 107.95 209.709C106.749 208.363 105.139 207.691 103.121 207.691C101.08 207.691 99.4461 208.351 98.221 209.672C97.0199 210.994 96.4194 212.783 96.4194 215.041C96.4194 217.275 97.0199 219.065 98.221 220.41C99.4461 221.731 101.08 222.392 103.121 222.392ZM136.276 210.465C135.82 209.624 135.159 208.988 134.294 208.555C133.453 208.099 132.457 207.871 131.304 207.871C129.31 207.871 127.712 208.531 126.511 209.853C125.31 211.15 124.71 212.891 124.71 215.077C124.71 217.407 125.334 219.233 126.583 220.554C127.856 221.851 129.598 222.5 131.808 222.5C133.321 222.5 134.594 222.116 135.627 221.347C136.684 220.578 137.453 219.473 137.933 218.032H130.114V213.492H143.518V219.221C143.062 220.758 142.281 222.188 141.176 223.509C140.095 224.83 138.714 225.899 137.033 226.716C135.351 227.533 133.453 227.941 131.34 227.941C128.841 227.941 126.607 227.4 124.638 226.319C122.692 225.214 121.166 223.689 120.061 221.743C118.98 219.798 118.44 217.576 118.44 215.077C118.44 212.579 118.98 210.357 120.061 208.411C121.166 206.442 122.692 204.916 124.638 203.835C126.583 202.73 128.805 202.178 131.304 202.178C134.33 202.178 136.877 202.91 138.942 204.376C141.032 205.841 142.413 207.871 143.086 210.465H136.276ZM158.894 228.013C156.516 228.013 154.33 227.46 152.336 226.355C150.367 225.25 148.793 223.713 147.616 221.743C146.463 219.75 145.886 217.516 145.886 215.041C145.886 212.567 146.463 210.345 147.616 208.375C148.793 206.406 150.367 204.868 152.336 203.763C154.33 202.658 156.516 202.106 158.894 202.106C161.272 202.106 163.446 202.658 165.416 203.763C167.41 204.868 168.971 206.406 170.1 208.375C171.253 210.345 171.83 212.567 171.83 215.041C171.83 217.516 171.253 219.75 170.1 221.743C168.947 223.713 167.386 225.25 165.416 226.355C163.446 227.46 161.272 228.013 158.894 228.013ZM158.894 222.392C160.912 222.392 162.521 221.719 163.723 220.374C164.948 219.029 165.56 217.251 165.56 215.041C165.56 212.807 164.948 211.03 163.723 209.709C162.521 208.363 160.912 207.691 158.894 207.691C156.852 207.691 155.219 208.351 153.994 209.672C152.793 210.994 152.192 212.783 152.192 215.041C152.192 217.275 152.793 219.065 153.994 220.41C155.219 221.731 156.852 222.392 158.894 222.392Z" fill="#EF2138"/>
<defs>
<radialGradient id="paint0_radial_297_271" cx="0" cy="0" r="1" gradientUnits="userSpaceOnUse" gradientTransform="translate(122.746 329.854) scale(110.958 19.486)">
<stop offset="0.005"/>
<stop offset="1" stop-color="white" stop-opacity="0"/>
</radialGradient>
<linearGradient id="paint1_linear_297_271" x1="33.1793" y1="38.5349" x2="237.002" y2="241.256" gradientUnits="userSpaceOnUse">
<stop stop-color="white"/>
<stop offset="1" stop-color="#E6E7E8"/>
</linearGradient>
</defs>
</svg>
