<svg width="244" height="294" viewBox="0 0 244 294" fill="none" xmlns="http://www.w3.org/2000/svg">
<path d="M122.087 293.735H121.393L121.746 293.587L122.087 293.735Z" fill="white"/>
<path d="M240.349 129.734C240.194 130.664 240.025 131.608 239.856 132.552H3.67415C3.50515 131.608 3.33615 130.664 3.18115 129.734H240.349Z" fill="#E82438"/>
<path d="M226.119 183.272C225.753 184.216 225.372 185.146 224.992 186.09H18.7171C18.3371 185.146 17.9561 184.216 17.5901 183.272H226.119Z" fill="#E82438"/>
<path d="M124.783 47.261C124.999 45.35 127.672 43.78 131.289 42.484C131.073 39.97 130.925 30.256 129.605 25.115C127.956 23.284 124.475 22.328 124.475 22.328C126.386 22.51 127.592 22.783 128.342 23.01C127.318 22.066 125.589 21.304 122.768 21.895C118.082 22.896 117.945 26.877 118.082 29.061C118.287 32.69 118.617 38.229 118.799 40.47C119.061 43.678 119.117 49.899 121.654 51.81C123.394 53.118 125.533 53.3 126.727 53.118C125.193 51.14 124.613 48.922 124.783 47.261ZM145.758 31.747C146.327 28.244 142.243 25.741 140.662 25.218C138.671 24.558 134.224 24.399 132.814 28.801C132.678 32.862 133.212 39.493 133.633 41.711C134.771 41.358 135.453 41.188 136.659 40.869C139.73 40.096 142.437 39.413 145.076 39.231C145.076 38.31 145.133 35.716 145.099 33.532C145.099 30.631 143.154 28.618 142.915 28.379C144.529 29.472 145.348 30.734 145.758 31.747ZM124.783 47.261C124.999 45.35 127.672 43.78 131.289 42.484C131.073 39.97 130.925 30.256 129.605 25.115C127.956 23.284 124.475 22.328 124.475 22.328C126.386 22.51 127.592 22.783 128.342 23.01C127.318 22.066 125.589 21.304 122.768 21.895C118.082 22.896 117.945 26.877 118.082 29.061C118.287 32.69 118.617 38.229 118.799 40.47C119.061 43.678 119.117 49.899 121.654 51.81C123.394 53.118 125.533 53.3 126.727 53.118C125.193 51.14 124.613 48.922 124.783 47.261ZM145.758 31.747C146.327 28.244 142.243 25.741 140.662 25.218C138.671 24.558 134.224 24.399 132.814 28.801C132.678 32.862 133.212 39.493 133.633 41.711C134.771 41.358 135.453 41.188 136.659 40.869C139.73 40.096 142.437 39.413 145.076 39.231C145.076 38.31 145.133 35.716 145.099 33.532C145.099 30.631 143.154 28.618 142.915 28.379C144.529 29.472 145.348 30.734 145.758 31.747ZM209.944 33.532H204.439V18.257C204.439 15.311 202.05 12.922 199.104 12.922H196.511C193.565 12.922 191.176 15.311 191.176 18.257V33.533H190.71V11.523C190.71 8.57699 188.321 6.188 185.375 6.188H182.782C179.836 6.188 177.447 8.57699 177.447 11.523V33.533H176.981V5.335C176.981 2.389 174.592 0 171.646 0H169.053C166.107 0 163.718 2.389 163.718 5.335V33.532H150.876C150.853 33.486 150.83 33.464 150.83 33.464C148.896 27.185 146.587 24.171 142.288 22.135C137.181 19.712 132.79 22.192 132.79 22.192C132.79 22.192 130.174 17.961 124.669 17.585C119.175 17.21 115.467 21.396 115.467 21.396C115.467 21.396 111.588 18.757 107.277 19.201C102.955 19.645 99.7022 23.341 99.7022 23.341C99.7022 23.341 93.7992 21.624 89.5102 23.239C86.2342 24.479 84.5622 28.107 84.3352 30.2C84.2442 31.019 84.1302 32.202 83.9822 33.533H80.0012V5.335C80.0012 2.389 77.6122 0 74.6662 0H72.0732C69.1272 0 66.7382 2.389 66.7382 5.335V33.532H66.2722V11.522C66.2722 8.576 63.8832 6.187 60.9372 6.187H58.3442C55.3982 6.187 53.0092 8.576 53.0092 11.522V33.532H52.5432V18.257C52.5432 15.311 50.1542 12.922 47.2082 12.922H44.6152C41.6692 12.922 39.2802 15.311 39.2802 18.257V33.533H34.0022C32.9902 33.533 32.1592 34.363 32.1592 35.376V45.533C32.1592 46.568 32.9892 47.387 34.0022 47.387H39.2802V62.663C39.2802 65.609 41.6692 67.998 44.6152 67.998H47.2082C50.1542 67.998 52.5432 65.609 52.5432 62.663V47.387H53.0092V69.408C53.0092 72.354 55.3982 74.743 58.3442 74.743H60.9372C63.8832 74.743 66.2722 72.354 66.2722 69.408V47.387H66.7382V75.584C66.7382 78.53 69.1272 80.919 72.0732 80.919H74.6662C77.6122 80.919 80.0012 78.53 80.0012 75.584V47.387H82.7762C82.7762 51.959 82.9352 63.084 84.2892 72.195C86.0522 83.979 91.9552 87.175 91.9552 87.175L90.1582 118.546H92.0692L93.8782 86.527C92.2402 85.378 90.7842 83.956 89.7722 82.159C83.4932 70.966 84.8472 47.387 84.8472 47.387H87.2132C87.2132 47.387 87.0992 49.286 87.1112 52.244C87.8282 51.425 88.6352 50.925 89.2382 50.652C89.0672 50.22 88.9202 49.765 88.7602 49.276C86.6332 42.622 86.2122 33.602 86.3832 31.748C86.5652 29.871 87.5432 25.89 92.0702 24.832C96.5972 23.763 100.897 25.367 100.897 25.367C100.897 25.367 103.126 21.625 108.051 21.227C112.965 20.829 116.389 24.162 116.389 24.162C118.232 20.477 122.508 19.362 126.125 19.817C131.846 20.522 131.972 26.153 131.972 26.153C131.972 26.153 133.746 22.604 138.49 22.979C142.073 23.263 147.806 25.823 148.75 33.535H147.055C147.055 35.878 146.918 38.244 146.896 39.131C147.931 39.131 148.853 39.245 149.569 39.506C150.888 40.006 151.992 41.007 152.913 42.27C153.811 43.544 154.528 45.079 155.097 46.626C155.097 46.626 159.01 56.033 159.806 59.502C160.272 61.504 161.307 63.927 160.807 66.395C160.477 68.181 159.271 69.898 157.167 72.48C154.221 76.04 150.672 80.033 147.101 83.183C141.118 88.506 138.058 90.792 138.058 90.792L139.696 118.546H141.88L140.117 91.406C150.161 84.229 158.999 73.412 159.818 72.456C161.524 70.466 163.856 66.518 162.047 61.025C160.625 56.691 159.351 52.38 157.85 48.604C157.679 48.194 157.52 47.785 157.35 47.387H163.72V75.584C163.72 78.53 166.109 80.919 169.055 80.919H171.648C174.594 80.919 176.983 78.53 176.983 75.584V47.387H177.449V69.408C177.449 72.354 179.838 74.743 182.784 74.743H185.377C188.323 74.743 190.712 72.354 190.712 69.408V47.387H191.178V62.663C191.178 65.609 193.567 67.998 196.513 67.998H199.106C202.052 67.998 204.441 65.609 204.441 62.663V47.387H209.946C210.97 47.387 211.789 46.568 211.789 45.533V35.376C211.786 34.363 210.967 33.532 209.944 33.532ZM39.2812 36.012H33.6512C33.6512 36.012 33.6512 35.989 33.6512 35.932C33.6512 35.636 33.7422 34.783 34.9132 34.783H39.2812V36.012ZM42.7622 19.826L41.4652 33.532V19.246C41.4652 14.867 46.0722 14.708 46.0722 14.708C42.8642 15.64 42.7622 19.826 42.7622 19.826ZM56.5252 13.047L55.2282 33.532V12.467C55.2282 8.076 59.8352 7.92899 59.8352 7.92899C56.6272 8.86099 56.5252 13.047 56.5252 13.047ZM70.0602 6.757L68.7632 33.533V6.188C68.7632 1.798 73.3702 1.64999 73.3702 1.64999C70.1522 2.58199 70.0602 6.757 70.0602 6.757ZM80.0022 36.012V34.783H83.8692C83.8802 35.136 83.9372 36.012 83.9372 36.012H80.0022ZM163.718 36.012H148.544C148.544 36.012 148.601 35.136 148.612 34.783H163.717L163.718 36.012ZM167.039 6.757L165.742 33.533V6.188C165.742 1.798 170.349 1.64999 170.349 1.64999C167.13 2.58199 167.039 6.757 167.039 6.757ZM180.564 13.047L179.279 33.532V12.467C179.279 8.076 183.886 7.92899 183.886 7.92899C180.666 8.86099 180.564 13.047 180.564 13.047ZM194.236 19.826L192.939 33.532V19.246C192.939 14.867 197.546 14.708 197.546 14.708C194.327 15.64 194.236 19.826 194.236 19.826ZM210.069 36.012H204.439V34.783H208.807C209.979 34.783 210.07 35.636 210.07 35.932C210.069 35.989 210.069 36.012 210.069 36.012ZM145.758 31.747C146.327 28.244 142.243 25.741 140.662 25.218C138.671 24.558 134.224 24.399 132.814 28.801C132.678 32.862 133.212 39.493 133.633 41.711C134.771 41.358 135.453 41.188 136.659 40.869C139.73 40.096 142.437 39.413 145.076 39.231C145.076 38.31 145.133 35.716 145.099 33.532C145.099 30.631 143.154 28.618 142.915 28.379C144.529 29.472 145.348 30.734 145.758 31.747ZM124.783 47.261C124.999 45.35 127.672 43.78 131.289 42.484C131.073 39.97 130.925 30.256 129.605 25.115C127.956 23.284 124.475 22.328 124.475 22.328C126.386 22.51 127.592 22.783 128.342 23.01C127.318 22.066 125.589 21.304 122.768 21.895C118.082 22.896 117.945 26.877 118.082 29.061C118.287 32.69 118.617 38.229 118.799 40.47C119.061 43.678 119.117 49.899 121.654 51.81C123.394 53.118 125.533 53.3 126.727 53.118C125.193 51.14 124.613 48.922 124.783 47.261ZM145.758 31.747C146.327 28.244 142.243 25.741 140.662 25.218C138.671 24.558 134.224 24.399 132.814 28.801C132.678 32.862 133.212 39.493 133.633 41.711C134.771 41.358 135.453 41.188 136.659 40.869C139.73 40.096 142.437 39.413 145.076 39.231C145.076 38.31 145.133 35.716 145.099 33.532C145.099 30.631 143.154 28.618 142.915 28.379C144.529 29.472 145.348 30.734 145.758 31.747ZM124.783 47.261C124.999 45.35 127.672 43.78 131.289 42.484C131.073 39.97 130.925 30.256 129.605 25.115C127.956 23.284 124.475 22.328 124.475 22.328C126.386 22.51 127.592 22.783 128.342 23.01C127.318 22.066 125.589 21.304 122.768 21.895C118.082 22.896 117.945 26.877 118.082 29.061C118.287 32.69 118.617 38.229 118.799 40.47C119.061 43.678 119.117 49.899 121.654 51.81C123.394 53.118 125.533 53.3 126.727 53.118C125.193 51.14 124.613 48.922 124.783 47.261ZM148.908 41.574C147.384 40.778 142.789 41.381 138.216 42.461C140.9 44.815 140.934 47.796 140.934 47.921C140.752 47.477 140.536 47.068 140.297 46.704C138.636 44.145 135.36 43.132 132.471 44.088C131.516 44.407 130.64 44.725 129.889 45.044C127.864 45.874 126.715 47.171 126.863 48.229C126.886 48.331 126.897 48.411 126.92 48.513C127.375 49.275 128.41 50.071 130.605 50.538C135.678 51.653 138.943 49.503 138.943 49.503C138.943 49.503 136.304 52.085 130.571 51.232C129.035 50.993 128.012 50.549 127.318 50.06C129.013 54.917 134.165 56.293 139.102 56.1C141.491 56.009 145.028 54.792 146.859 53.245C148.019 52.278 149.077 51.004 149.612 49.423C149.612 49.423 149.532 52.141 147.69 54.291C149.555 54.109 150.613 53.404 150.75 53.301C150.648 53.54 148.668 57.384 138.534 57.726C136.475 57.794 134.701 57.567 133.154 57.157C117.81 60.012 114.671 77.028 114.671 77.028C114.864 62.514 125.92 56.963 129.446 55.564C129.093 55.348 128.752 55.109 128.445 54.847C128.445 54.847 127.592 54.119 127.239 53.732C127.239 53.732 122.018 55.836 118.754 51.048C118.344 51.537 117.503 52.254 115.808 52.72C113.021 53.482 110.962 52.174 110.962 52.174C115.489 53.198 117.866 49.501 117.866 49.501H117.877C117.627 48.944 117.388 48.364 117.195 47.692C115.876 43.415 115.534 31.461 115.455 27.514C113.487 25.603 110.882 24.875 110.882 24.875C113.521 25.057 115.034 25.956 115.364 26.172C114.863 25.683 111.451 22.669 107.607 23.476C107.573 23.487 107.527 23.487 107.482 23.499C104.365 24.193 102.318 27.161 102.58 30.346C102.887 34.077 103.456 40.515 103.945 43.802C104.662 48.579 105.515 52.788 109.678 54.483C113.625 56.064 118.038 52.674 118.482 52.322C118.22 52.766 115.229 57.452 109.712 56.508C107.642 56.155 105.606 54.893 104.173 52.493C103.684 52.937 102.911 53.426 101.637 53.778C98.8502 54.54 96.7912 53.232 96.7912 53.232C100.385 54.051 102.638 51.867 103.4 50.934C103.241 50.581 103.104 50.229 102.979 49.831C101.83 46.225 100.431 32.531 100.079 28.925C97.9412 27.935 95.1542 27.799 95.1542 27.799C96.7802 27.208 99.7042 27.97 99.9652 28.038C99.5782 27.833 95.1882 25.627 91.1952 27.663C87.0322 29.79 88.2492 37.263 88.9432 41.255C89.7852 46.18 91.5022 53.79 95.4952 55.211C99.2832 56.553 103.662 53.914 104.106 53.653C103.89 54.017 101.513 57.748 96.7922 57.441C93.9372 57.259 91.5262 56.201 89.5352 51.401C87.2372 53.289 87.2262 56.622 87.2262 56.713L87.2152 56.667V56.747C88.6482 55.234 90.6162 54.722 90.8552 54.677C87.4082 56.747 87.7162 63.185 87.7382 63.515C88.4212 69.578 89.8202 76.129 92.5952 80.918C96.0192 86.833 106.768 90.791 106.768 90.791C106.768 90.791 103.651 90.598 99.9772 89.426L98.0322 108.046L97.8732 88.664C97.4862 88.505 97.1002 88.334 96.7132 88.152L94.3702 118.545H137.309L134.818 91.633C133.464 91.986 128.972 92.259 126.799 92.406L125.855 114.916L124.285 92.565C121.544 92.679 119.03 92.633 117.972 92.463C119.837 92.338 123.011 91.962 126.764 90.962C119.917 91.599 113.558 91.064 113.558 91.064C124.364 90.313 130.972 89.415 134.612 88.072C137.194 87.117 139.617 85.376 142.062 83.477C152.333 75.424 158.02 67.234 158.532 65.653C159.452 62.754 152.662 43.576 148.908 41.574ZM113.5 79.133C113.5 79.133 112.101 73.958 113.818 68.691C113.5 67.008 112.624 65.654 112.521 65.483C113.283 65.949 113.954 66.962 114.273 67.485C115.092 65.551 116.377 63.641 118.368 62.048C117.799 62.697 113.056 68.372 113.5 79.133ZM140.969 58.044C141.265 58.249 146.645 61.968 151.456 61.058C151.456 61.059 144.313 64.255 140.969 58.044ZM145.758 31.747C146.327 28.244 142.243 25.741 140.662 25.218C138.671 24.558 134.224 24.399 132.814 28.801C132.678 32.862 133.212 39.493 133.633 41.711C134.771 41.358 135.453 41.188 136.659 40.869C139.73 40.096 142.437 39.413 145.076 39.231C145.076 38.31 145.133 35.716 145.099 33.532C145.099 30.631 143.154 28.618 142.915 28.379C144.529 29.472 145.348 30.734 145.758 31.747ZM124.783 47.261C124.999 45.35 127.672 43.78 131.289 42.484C131.073 39.97 130.925 30.256 129.605 25.115C127.956 23.284 124.475 22.328 124.475 22.328C126.386 22.51 127.592 22.783 128.342 23.01C127.318 22.066 125.589 21.304 122.768 21.895C118.082 22.896 117.945 26.877 118.082 29.061C118.287 32.69 118.617 38.229 118.799 40.47C119.061 43.678 119.117 49.899 121.654 51.81C123.394 53.118 125.533 53.3 126.727 53.118C125.193 51.14 124.613 48.922 124.783 47.261Z" fill="#EF2138"/>
<path d="M139.695 118.545H137.306L137.875 124.676H140.059L139.695 118.545ZM92.0703 118.545L91.7173 124.676H93.8903L94.3683 118.545H92.0703Z" fill="url(#paint0_linear_370_130)"/>
<path d="M10.7922 118.544H234.572L233.75 125.747H9.97021L10.7922 118.544Z" fill="#EF2138"/>
<path d="M121.86 239.305L125.58 246.842L133.897 248.05L127.879 253.917L129.299 262.201L121.86 258.29L114.42 262.201L115.841 253.917L109.823 248.05L118.14 246.842L121.86 239.305Z" fill="#EF2138"/>
<path d="M90.6001 234.383L92.8861 239.015L97.9971 239.758L94.2981 243.363L95.1711 248.453L90.6001 246.049L86.0291 248.453L86.9021 243.363L83.2031 239.758L88.3141 239.015L90.6001 234.383Z" fill="#EF2138"/>
<path d="M153.12 234.383L155.406 239.015L160.517 239.758L156.818 243.363L157.691 248.453L153.12 246.049L148.548 248.453L149.422 243.363L145.723 239.758L150.834 239.015L153.12 234.383Z" fill="#EF2138"/>
<path d="M33.3114 142.911V153.308H16.8896V159.097H28.7039V168.962H16.8896V184.734H3.77583V142.911H33.3114ZM50.8671 142.911V184.734H37.7533V142.911H50.8671ZM89.6335 142.911V153.308H78.5281V184.734H65.4143V153.308H54.4271V142.911H89.6335ZM133.3 184.734H120.186L106.304 163.704V184.734H93.1902V142.911H106.304L120.186 164.295V142.911H133.3V184.734ZM152.338 153.367V158.506H165.334V168.371H152.338V174.278H167.106V184.734H139.224V142.911H167.106V153.367H152.338ZM188.411 185.147C183.409 185.147 179.274 183.985 176.006 181.662C172.777 179.299 171.024 175.853 170.748 171.324H184.689C184.886 173.727 185.949 174.928 187.879 174.928C188.588 174.928 189.179 174.77 189.651 174.455C190.163 174.101 190.419 173.569 190.419 172.86C190.419 171.876 189.887 171.088 188.824 170.497C187.761 169.867 186.107 169.159 183.862 168.371C181.184 167.426 178.959 166.5 177.187 165.595C175.454 164.689 173.958 163.37 172.698 161.637C171.438 159.904 170.827 157.679 170.867 154.962C170.867 152.244 171.556 149.941 172.934 148.05C174.352 146.121 176.262 144.664 178.664 143.679C181.106 142.695 183.843 142.202 186.875 142.202C191.994 142.202 196.051 143.384 199.044 145.747C202.076 148.109 203.671 151.437 203.828 155.73H189.71C189.671 154.548 189.376 153.702 188.824 153.19C188.273 152.678 187.603 152.422 186.816 152.422C186.264 152.422 185.812 152.619 185.457 153.012C185.103 153.367 184.926 153.879 184.926 154.548C184.926 155.493 185.437 156.281 186.461 156.911C187.525 157.502 189.198 158.23 191.482 159.097C194.121 160.081 196.287 161.026 197.98 161.932C199.713 162.838 201.209 164.098 202.47 165.713C203.73 167.327 204.36 169.355 204.36 171.797C204.36 174.357 203.73 176.661 202.47 178.708C201.209 180.717 199.378 182.292 196.976 183.434C194.574 184.576 191.719 185.147 188.411 185.147ZM225.33 185.147C220.329 185.147 216.194 183.985 212.925 181.662C209.696 179.299 207.944 175.853 207.668 171.324H221.609C221.806 173.727 222.869 174.928 224.799 174.928C225.507 174.928 226.098 174.77 226.571 174.455C227.083 174.101 227.339 173.569 227.339 172.86C227.339 171.876 226.807 171.088 225.744 170.497C224.68 169.867 223.026 169.159 220.782 168.371C218.104 167.426 215.879 166.5 214.107 165.595C212.374 164.689 210.877 163.37 209.617 161.637C208.357 159.904 207.747 157.679 207.786 154.962C207.786 152.244 208.475 149.941 209.854 148.05C211.271 146.121 213.181 144.664 215.583 143.679C218.025 142.695 220.762 142.202 223.794 142.202C228.914 142.202 232.97 143.384 235.963 145.747C238.995 148.109 240.59 151.437 240.748 155.73H226.63C226.59 154.548 226.295 153.702 225.744 153.19C225.192 152.678 224.523 152.422 223.735 152.422C223.184 152.422 222.731 152.619 222.377 153.012C222.022 153.367 221.845 153.879 221.845 154.548C221.845 155.493 222.357 156.281 223.381 156.911C224.444 157.502 226.118 158.23 228.402 159.097C231.04 160.081 233.206 161.026 234.9 161.932C236.633 162.838 238.129 164.098 239.389 165.713C240.649 167.327 241.279 169.355 241.279 171.797C241.279 174.357 240.649 176.661 239.389 178.708C238.129 180.717 236.298 182.292 233.896 183.434C231.493 184.576 228.638 185.147 225.33 185.147Z" fill="#EF2138"/>
<path d="M79.1485 223.004H87.2197V227.761H72.9869V202.466H79.1485V223.004ZM102.121 228.013C99.7432 228.013 97.5573 227.46 95.5635 226.355C93.5937 225.25 92.0203 223.713 90.8432 221.743C89.6902 219.75 89.1137 217.516 89.1137 215.041C89.1137 212.567 89.6902 210.345 90.8432 208.375C92.0203 206.406 93.5937 204.868 95.5635 203.763C97.5573 202.658 99.7432 202.106 102.121 202.106C104.5 202.106 106.673 202.658 108.643 203.763C110.637 204.868 112.198 206.406 113.327 208.375C114.48 210.345 115.057 212.567 115.057 215.041C115.057 217.516 114.48 219.75 113.327 221.743C112.174 223.713 110.613 225.25 108.643 226.355C106.673 227.46 104.5 228.013 102.121 228.013ZM102.121 222.392C104.139 222.392 105.749 221.719 106.95 220.374C108.175 219.029 108.787 217.251 108.787 215.041C108.787 212.807 108.175 211.03 106.95 209.709C105.749 208.363 104.139 207.691 102.121 207.691C100.08 207.691 98.4461 208.351 97.221 209.672C96.0199 210.994 95.4194 212.783 95.4194 215.041C95.4194 217.275 96.0199 219.065 97.221 220.41C98.4461 221.731 100.08 222.392 102.121 222.392ZM135.276 210.465C134.82 209.624 134.159 208.988 133.294 208.555C132.453 208.099 131.457 207.871 130.304 207.871C128.31 207.871 126.712 208.531 125.511 209.853C124.31 211.15 123.71 212.891 123.71 215.077C123.71 217.407 124.334 219.233 125.583 220.554C126.856 221.851 128.598 222.5 130.808 222.5C132.321 222.5 133.594 222.116 134.627 221.347C135.684 220.578 136.453 219.473 136.933 218.032H129.114V213.492H142.518V219.221C142.062 220.758 141.281 222.188 140.176 223.509C139.095 224.83 137.714 225.899 136.033 226.716C134.351 227.533 132.453 227.941 130.34 227.941C127.841 227.941 125.607 227.4 123.638 226.319C121.692 225.214 120.166 223.689 119.061 221.743C117.98 219.798 117.44 217.576 117.44 215.077C117.44 212.579 117.98 210.357 119.061 208.411C120.166 206.442 121.692 204.916 123.638 203.835C125.583 202.73 127.805 202.178 130.304 202.178C133.33 202.178 135.877 202.91 137.942 204.376C140.032 205.841 141.413 207.871 142.086 210.465H135.276ZM157.894 228.013C155.516 228.013 153.33 227.46 151.336 226.355C149.367 225.25 147.793 223.713 146.616 221.743C145.463 219.75 144.886 217.516 144.886 215.041C144.886 212.567 145.463 210.345 146.616 208.375C147.793 206.406 149.367 204.868 151.336 203.763C153.33 202.658 155.516 202.106 157.894 202.106C160.272 202.106 162.446 202.658 164.416 203.763C166.41 204.868 167.971 206.406 169.1 208.375C170.253 210.345 170.83 212.567 170.83 215.041C170.83 217.516 170.253 219.75 169.1 221.743C167.947 223.713 166.386 225.25 164.416 226.355C162.446 227.46 160.272 228.013 157.894 228.013ZM157.894 222.392C159.912 222.392 161.521 221.719 162.723 220.374C163.948 219.029 164.56 217.251 164.56 215.041C164.56 212.807 163.948 211.03 162.723 209.709C161.521 208.363 159.912 207.691 157.894 207.691C155.852 207.691 154.219 208.351 152.994 209.672C151.793 210.994 151.192 212.783 151.192 215.041C151.192 217.275 151.793 219.065 152.994 220.41C154.219 221.731 155.852 222.392 157.894 222.392Z" fill="#EF2138"/>
<defs>
<linearGradient id="paint0_linear_370_130" x1="32.1793" y1="38.5349" x2="236.002" y2="241.256" gradientUnits="userSpaceOnUse">
<stop stop-color="white"/>
<stop offset="1" stop-color="#E6E7E8"/>
</linearGradient>
</defs>
</svg>
